<svg xmlns="http://www.w3.org/2000/svg" viewBox="0 0 447.24 383.56"><defs><style>.cls-1{fill:#668ed3;}</style></defs><g id="Capa_2" data-name="Capa 2"><g id="Capa_1-2" data-name="Capa 1"><path class="cls-1" d="M420.36,160.39a31.07,31.07,0,0,0-5.53-.41H99.31l6.88-3.2A64.35,64.35,0,0,0,124.27,144L212.75,55.5a33.13,33.13,0,0,0,4.64-42.4,31.94,31.94,0,0,0-48-4.16l-160,160a32,32,0,0,0,0,45.25l0,0,160,160a32,32,0,0,0,45.25-.07,32.75,32.75,0,0,0,2.75-3.13,33.12,33.12,0,0,0-4.64-42.4L124.43,240a64.25,64.25,0,0,0-16-11.68L98.83,224H413.07a33.14,33.14,0,0,0,33.76-26.88A32,32,0,0,0,420.36,160.39Z"/></g></g></svg>