<svg xmlns="http://www.w3.org/2000/svg" viewBox="0 0 85.78 85.78"><defs><style>.cls-1{fill:#fff;}</style></defs><g id="Capa_2" data-name="Capa 2"><g id="Capa_2-2" data-name="Capa 2"><path class="cls-1" d="M29.61,67.13a.79.79,0,0,0-.31-.67A3.88,3.88,0,0,0,28.21,66a5.78,5.78,0,0,1-1.27-.53A1.7,1.7,0,0,1,26.05,64a1.6,1.6,0,0,1,.64-1.31,2.65,2.65,0,0,1,1.68-.51,2.77,2.77,0,0,1,1.22.25,2.07,2.07,0,0,1,.85.72,1.85,1.85,0,0,1,.3,1H29.61a1,1,0,0,0-.32-.8,1.33,1.33,0,0,0-.93-.29,1.35,1.35,0,0,0-.86.24.78.78,0,0,0-.31.66.72.72,0,0,0,.33.6,3.54,3.54,0,0,0,1.1.47,5.16,5.16,0,0,1,1.23.52,2,2,0,0,1,.68.67,1.67,1.67,0,0,1,.22.88,1.54,1.54,0,0,1-.63,1.3,2.7,2.7,0,0,1-1.71.49,3.17,3.17,0,0,1-1.31-.27,2.15,2.15,0,0,1-.92-.72,1.76,1.76,0,0,1-.34-1.08H27a1.07,1.07,0,0,0,.37.86,1.6,1.6,0,0,0,1.06.31,1.42,1.42,0,0,0,.9-.24A.79.79,0,0,0,29.61,67.13Z"/><path class="cls-1" d="M33.79,68.91a2.27,2.27,0,0,1-1.69-.66,2.36,2.36,0,0,1-.64-1.74v-.14a2.86,2.86,0,0,1,.28-1.3,2.09,2.09,0,0,1,1.92-1.22,1.89,1.89,0,0,1,1.54.64,2.69,2.69,0,0,1,.55,1.8v.44H32.56a1.46,1.46,0,0,0,.4,1,1.21,1.21,0,0,0,.89.35,1.51,1.51,0,0,0,1.23-.6l.59.56a2.05,2.05,0,0,1-.78.68A2.47,2.47,0,0,1,33.79,68.91Zm-.13-4.18a.94.94,0,0,0-.73.32,1.65,1.65,0,0,0-.35.88h2.08v-.09a1.33,1.33,0,0,0-.29-.83A.91.91,0,0,0,33.66,64.73Z"/><path class="cls-1" d="M36.39,66.34a2.9,2.9,0,0,1,.52-1.81,1.69,1.69,0,0,1,1.4-.68,1.61,1.61,0,0,1,1.26.54V61.9h1.09v6.92h-1l-.05-.51a1.62,1.62,0,0,1-1.31.6,1.66,1.66,0,0,1-1.39-.69A3,3,0,0,1,36.39,66.34Zm1.1.1a2.05,2.05,0,0,0,.28,1.16.92.92,0,0,0,.81.42,1,1,0,0,0,1-.6V65.33a1,1,0,0,0-1-.58,1,1,0,0,0-.82.42A2.28,2.28,0,0,0,37.49,66.44Z"/><path class="cls-1" d="M44.72,68.82a1.75,1.75,0,0,1-.13-.46,1.68,1.68,0,0,1-1.28.55,1.72,1.72,0,0,1-1.2-.42,1.46,1.46,0,0,1,.12-2.23,2.77,2.77,0,0,1,1.65-.42h.68v-.32a.77.77,0,0,0-.86-.83,1,1,0,0,0-.61.18.6.6,0,0,0-.24.48h-1.1A1.19,1.19,0,0,1,42,64.6a1.82,1.82,0,0,1,.72-.55,2.61,2.61,0,0,1,1-.2,2.1,2.1,0,0,1,1.37.43,1.54,1.54,0,0,1,.52,1.21v2.2a2.38,2.38,0,0,0,.19,1v.08ZM43.51,68a1.25,1.25,0,0,0,.62-.16,1,1,0,0,0,.43-.42v-.92H44a1.62,1.62,0,0,0-.92.21.7.7,0,0,0-.31.6.63.63,0,0,0,.21.5A.79.79,0,0,0,43.51,68Z"/><path class="cls-1" d="M47.81,63.94l0,.57a1.73,1.73,0,0,1,1.41-.66c1,0,1.54.58,1.56,1.75v3.22h-1.1V65.66a1,1,0,0,0-.2-.69.83.83,0,0,0-.66-.22,1,1,0,0,0-1,.6v3.47h-1.1V63.94Z"/><path class="cls-1" d="M54.08,68.91a2.25,2.25,0,0,1-1.69-.66,2.37,2.37,0,0,1-.65-1.74v-.14a2.86,2.86,0,0,1,.29-1.3A2.09,2.09,0,0,1,54,63.85a1.89,1.89,0,0,1,1.54.64,2.69,2.69,0,0,1,.54,1.8v.44H52.85a1.41,1.41,0,0,0,.4,1,1.19,1.19,0,0,0,.89.35,1.51,1.51,0,0,0,1.23-.6L56,68a2,2,0,0,1-.79.68A2.42,2.42,0,0,1,54.08,68.91ZM54,64.73a.93.93,0,0,0-.73.32,1.58,1.58,0,0,0-.35.88H55v-.09a1.33,1.33,0,0,0-.29-.83A.91.91,0,0,0,54,64.73Z"/><path class="cls-1" d="M59.62,67.49a.49.49,0,0,0-.24-.44,2.52,2.52,0,0,0-.8-.27,4.17,4.17,0,0,1-.94-.3,1.26,1.26,0,0,1-.82-1.15,1.3,1.3,0,0,1,.53-1,2.09,2.09,0,0,1,1.36-.43,2.24,2.24,0,0,1,1.41.43,1.39,1.39,0,0,1,.54,1.13h-1.1a.7.7,0,0,0-.23-.53.91.91,0,0,0-.62-.21,1,1,0,0,0-.59.17.53.53,0,0,0-.23.45.46.46,0,0,0,.21.39A3.23,3.23,0,0,0,59,66a3.81,3.81,0,0,1,1,.34,1.43,1.43,0,0,1,.55.47,1.24,1.24,0,0,1,.17.66,1.28,1.28,0,0,1-.54,1.07,2.35,2.35,0,0,1-1.43.41,2.44,2.44,0,0,1-1.07-.22,1.79,1.79,0,0,1-.73-.59,1.47,1.47,0,0,1-.26-.82h1.06a.8.8,0,0,0,.3.6,1.13,1.13,0,0,0,.71.21,1.11,1.11,0,0,0,.66-.17A.51.51,0,0,0,59.62,67.49Z"/><rect class="cls-1" x="5.18" y="5.67" width="15.71" height="15.71" rx="7.85"/><path class="cls-1" d="M80.21,43.71a28.24,28.24,0,0,0-12.1-5,39.8,39.8,0,0,0-6.9-.73A84.33,84.33,0,0,0,50.82,33.2h0c-6.24-2.14-13.53-1.37-13.9-1.33-6.61.65-19.32,3.52-20.13,3.7-3.53.63-8.29,1.2-8.48,1.22H8.21c-1.43.24-1.93.93-2.1,1.47a2.34,2.34,0,0,0,.71,2.27c.32.39-.23,1.43-.73,2a1.4,1.4,0,0,0-.31,1L6,46a1.43,1.43,0,0,0,.39.84,1.39,1.39,0,0,0,.42,1.42l3,2.64a1.41,1.41,0,0,0,.88.35l4.53.15h.49a6.61,6.61,0,0,0,10.06,0h.62l31.17-.3h.81a6.25,6.25,0,0,0,9.84.37,1.34,1.34,0,0,0,.33.42,1.41,1.41,0,0,0,.9.33,1.53,1.53,0,0,0,.3,0l9.59-2.08a1.41,1.41,0,0,0,1.1-1.37v-.23a1.39,1.39,0,0,0-.52-1.08l.76-2.14A1.41,1.41,0,0,0,80.21,43.71Zm-16.77-.15a3.88,3.88,0,1,1-3.88,3.87A3.88,3.88,0,0,1,63.44,43.56Zm0-2.39a6.27,6.27,0,0,0-6.26,6.26,6.69,6.69,0,0,0,.13,1.28L27.08,49a6.74,6.74,0,0,0,.28-1.91A6.62,6.62,0,1,0,14.4,49l-3.28-.11-2-1.78a1.39,1.39,0,0,0-.36-1.27l-.4-.41-.16-1.67c1-1.4,1.61-3.23.56-4.63.95-.11,5.18-.63,8.46-1.22h.06c.54-.12,13.37-3,19.87-3.66h0c.07,0,7.06-.77,12.85,1.21a83.59,83.59,0,0,1,10.26,4.71,1.45,1.45,0,0,0,.69.18,37.16,37.16,0,0,1,6.7.69,26.6,26.6,0,0,1,10.52,4.16l-.87,2.45a1.22,1.22,0,0,0-.08.5l-6.86,1.48a1.41,1.41,0,0,0-.3-.46,1.26,1.26,0,0,0-.53-.35,6.19,6.19,0,0,0,.15-1.37A6.26,6.26,0,0,0,63.44,41.17Zm-42.7,1.69a4.24,4.24,0,1,1-4.23,4.24A4.24,4.24,0,0,1,20.74,42.86Z"/><path class="cls-1" d="M81,85.78H4.78A4.79,4.79,0,0,1,0,81V4.78A4.79,4.79,0,0,1,4.78,0H81a4.79,4.79,0,0,1,4.78,4.78V81A4.79,4.79,0,0,1,81,85.78ZM4.78.9A3.88,3.88,0,0,0,.9,4.78V81a3.88,3.88,0,0,0,3.88,3.88H81A3.88,3.88,0,0,0,84.88,81V4.78A3.88,3.88,0,0,0,81,.9Z"/></g></g></svg>