<svg xmlns="http://www.w3.org/2000/svg" viewBox="0 0 447.24 383.56"><defs><style>.cls-1{fill:#ffffff;}</style></defs><g id="Capa_2" data-name="Capa 2"><g id="Capa_1-2" data-name="Capa 1"><path class="cls-1" d="M26.88,223.17a32.07,32.07,0,0,0,5.54.41H347.94l-6.88,3.2A63.87,63.87,0,0,0,323,239.58L234.5,328.06a33.11,33.11,0,0,0-4.64,42.4,32,32,0,0,0,48,4.16l160-160a32,32,0,0,0,0-45.25l0,0-160-160a32,32,0,0,0-45.26.06,32.59,32.59,0,0,0-2.74,3.14,33.11,33.11,0,0,0,4.64,42.4l88.32,88.64a63.88,63.88,0,0,0,16,11.68l9.6,4.32H34.18A33.11,33.11,0,0,0,.42,186.46,32,32,0,0,0,26.88,223.17Z"/></g></g></svg>