<svg xmlns="http://www.w3.org/2000/svg" viewBox="0 0 85.78 85.78"><defs><style>.cls-1{fill:#fff;}</style></defs><g id="Capa_2" data-name="Capa 2"><g id="Capa_2-2" data-name="Capa 2"><path class="cls-1" d="M24.55,66.38v2.44H23.41V62.26h2.51a2.56,2.56,0,0,1,1.75.57,1.93,1.93,0,0,1,.64,1.52,1.87,1.87,0,0,1-.63,1.5,2.64,2.64,0,0,1-1.77.53Zm0-.91h1.37a1.36,1.36,0,0,0,.93-.29,1.07,1.07,0,0,0,.32-.83,1.13,1.13,0,0,0-.33-.85,1.21,1.21,0,0,0-.89-.32h-1.4Z"/><path class="cls-1" d="M32.07,68.82a1.75,1.75,0,0,1-.13-.46,1.68,1.68,0,0,1-1.28.55,1.72,1.72,0,0,1-1.2-.42,1.46,1.46,0,0,1,.12-2.23,2.75,2.75,0,0,1,1.65-.42h.67v-.32a.87.87,0,0,0-.21-.61.83.83,0,0,0-.64-.22,1,1,0,0,0-.61.18.6.6,0,0,0-.24.48H29.1a1.19,1.19,0,0,1,.27-.75,1.76,1.76,0,0,1,.72-.55,2.61,2.61,0,0,1,1-.2,2.1,2.1,0,0,1,1.37.43A1.54,1.54,0,0,1,33,65.49v2.2a2.54,2.54,0,0,0,.18,1v.08ZM30.86,68a1.18,1.18,0,0,0,.61-.16,1,1,0,0,0,.43-.42v-.92h-.59a1.61,1.61,0,0,0-.91.21.67.67,0,0,0-.31.6.63.63,0,0,0,.21.5A.79.79,0,0,0,30.86,68Z"/><path class="cls-1" d="M36.88,67.49a.49.49,0,0,0-.24-.44,2.43,2.43,0,0,0-.8-.27,4.07,4.07,0,0,1-.93-.3,1.25,1.25,0,0,1-.82-1.15,1.27,1.27,0,0,1,.53-1A2,2,0,0,1,36,63.85a2.24,2.24,0,0,1,1.41.43,1.39,1.39,0,0,1,.54,1.13H36.83a.68.68,0,0,0-.24-.53.9.9,0,0,0-.62-.21,1,1,0,0,0-.59.17.53.53,0,0,0-.23.45.45.45,0,0,0,.22.39,3.12,3.12,0,0,0,.85.28,3.81,3.81,0,0,1,1,.34,1.36,1.36,0,0,1,.55.47,1.16,1.16,0,0,1,.18.66,1.29,1.29,0,0,1-.55,1.07,2.33,2.33,0,0,1-1.43.41,2.47,2.47,0,0,1-1.07-.22,1.79,1.79,0,0,1-.73-.59,1.47,1.47,0,0,1-.26-.82H35a.76.76,0,0,0,.29.6,1.14,1.14,0,0,0,.72.21,1.09,1.09,0,0,0,.65-.17A.51.51,0,0,0,36.88,67.49Z"/><path class="cls-1" d="M41.82,68.82a1.83,1.83,0,0,1-.12-.46,1.7,1.7,0,0,1-1.28.55,1.72,1.72,0,0,1-1.2-.42,1.36,1.36,0,0,1-.47-1,1.38,1.38,0,0,1,.58-1.19A2.81,2.81,0,0,1,41,65.84h.67v-.32a.87.87,0,0,0-.21-.61.85.85,0,0,0-.65-.22,1,1,0,0,0-.61.18.6.6,0,0,0-.24.48H38.86a1.24,1.24,0,0,1,.26-.75,1.79,1.79,0,0,1,.73-.55,2.54,2.54,0,0,1,1-.2,2.07,2.07,0,0,1,1.36.43,1.55,1.55,0,0,1,.53,1.21v2.2a2.54,2.54,0,0,0,.18,1v.08ZM40.62,68a1.18,1.18,0,0,0,.61-.16,1,1,0,0,0,.43-.42v-.92h-.59a1.61,1.61,0,0,0-.91.21.67.67,0,0,0-.31.6.63.63,0,0,0,.21.5A.79.79,0,0,0,40.62,68Z"/><path class="cls-1" d="M45.05,63.94v5.31a1.58,1.58,0,0,1-.38,1.14,1.38,1.38,0,0,1-1.08.4,2.27,2.27,0,0,1-.59-.08v-.86a2.34,2.34,0,0,0,.39,0c.37,0,.55-.2.56-.6V63.94Zm-1.19-1.26a.57.57,0,0,1,.16-.42.6.6,0,0,1,.45-.17.62.62,0,0,1,.46.17.57.57,0,0,1,.16.42.56.56,0,0,1-.16.41.61.61,0,0,1-.46.16.59.59,0,0,1-.45-.16A.56.56,0,0,1,43.86,62.68Z"/><path class="cls-1" d="M48.36,68.91a2.28,2.28,0,0,1-1.69-.66A2.36,2.36,0,0,1,46,66.51v-.14a2.86,2.86,0,0,1,.28-1.3,2.17,2.17,0,0,1,.79-.9,2.13,2.13,0,0,1,1.14-.32,1.92,1.92,0,0,1,1.54.64,2.69,2.69,0,0,1,.54,1.8v.44H47.13a1.46,1.46,0,0,0,.41,1,1.18,1.18,0,0,0,.89.35,1.47,1.47,0,0,0,1.22-.6l.59.56a1.91,1.91,0,0,1-.78.68A2.47,2.47,0,0,1,48.36,68.91Zm-.13-4.18a.94.94,0,0,0-.73.32,1.65,1.65,0,0,0-.35.88h2.09v-.09a1.33,1.33,0,0,0-.3-.83A.89.89,0,0,0,48.23,64.73Z"/><path class="cls-1" d="M53.72,64.94a3.19,3.19,0,0,0-.45,0,1,1,0,0,0-1,.57v3.34H51.17V63.94h1l0,.55a1.22,1.22,0,0,1,1.1-.64,1.14,1.14,0,0,1,.39.06Z"/><path class="cls-1" d="M54.05,66.34a2.92,2.92,0,0,1,.28-1.3,2.07,2.07,0,0,1,.8-.88,2.28,2.28,0,0,1,1.18-.31,2.1,2.1,0,0,1,1.6.64,2.46,2.46,0,0,1,.66,1.68v.26a2.84,2.84,0,0,1-.28,1.29,2,2,0,0,1-.79.88,2.34,2.34,0,0,1-1.19.31,2.14,2.14,0,0,1-1.66-.69,2.65,2.65,0,0,1-.61-1.83Zm1.09.09a2,2,0,0,0,.31,1.18,1,1,0,0,0,.87.42,1,1,0,0,0,.86-.43,2.13,2.13,0,0,0,.31-1.26,2,2,0,0,0-.32-1.18,1,1,0,0,0-.86-.43,1,1,0,0,0-.85.43A2.12,2.12,0,0,0,55.14,66.43Z"/><path class="cls-1" d="M62.24,67.49a.49.49,0,0,0-.24-.44,2.43,2.43,0,0,0-.8-.27,4.17,4.17,0,0,1-.94-.3,1.26,1.26,0,0,1-.82-1.15,1.28,1.28,0,0,1,.54-1,2,2,0,0,1,1.35-.43,2.24,2.24,0,0,1,1.41.43,1.39,1.39,0,0,1,.54,1.13h-1.1a.67.67,0,0,0-.23-.53.9.9,0,0,0-.62-.21,1,1,0,0,0-.59.17.53.53,0,0,0-.23.45.46.46,0,0,0,.21.39,3.37,3.37,0,0,0,.86.28,3.81,3.81,0,0,1,1,.34,1.36,1.36,0,0,1,.55.47,1.16,1.16,0,0,1,.18.66,1.29,1.29,0,0,1-.55,1.07,2.33,2.33,0,0,1-1.43.41,2.47,2.47,0,0,1-1.07-.22,1.79,1.79,0,0,1-.73-.59,1.47,1.47,0,0,1-.26-.82h1.07a.76.76,0,0,0,.29.6,1.14,1.14,0,0,0,.72.21,1.09,1.09,0,0,0,.65-.17A.51.51,0,0,0,62.24,67.49Z"/><rect class="cls-1" x="5.1" y="5.67" width="15.71" height="15.71" rx="7.85"/><path class="cls-1" d="M80,40.82a18.53,18.53,0,0,0-.74-3.17l0-.06c-.87-2.11-5.74-3.19-10.38-4-3.68-.61-7.32-1-8.37-1.09a69.61,69.61,0,0,0-10.41-5.79,27.72,27.72,0,0,0-3.86-1.4c-2.68-.78-8-1-16.21-.61-6,.28-11.35.78-11.4.79h0l-6.43.82L10,26.6l1.45,2L8.3,32.21a4,4,0,0,0-1.36,3.4,9.92,9.92,0,0,0,.24,2.09l-.46,1.52.11,1-.57.69v4.88L8.7,47.83l4.62.48A7.57,7.57,0,0,0,28,49.53H57.09a7.57,7.57,0,0,0,14.33.24h4.29l.18-.05a5.48,5.48,0,0,0,3.42-2.85A10.6,10.6,0,0,0,80,40.82ZM64.3,52.36a5.15,5.15,0,1,1,5.14-5.15A5.16,5.16,0,0,1,64.3,52.36Zm0-12.72a7.58,7.58,0,0,0-7.57,7.46H28.39a7.57,7.57,0,0,0-15-1.22L9.7,45.49l-1-.85V41.76L9.36,41l-.17-1.51.51-1.68-.09-.34c-.29-1.1-.39-2.91.19-3.3L9.94,34l4.62-5.36-.14-.18,4.42-.57c5.84-.55,22-1.67,26.69-.25l.07,0A23.31,23.31,0,0,1,49.1,29a66.74,66.74,0,0,1,10.28,5.74l.25.17.31,0s4.19.38,8.49,1.11c7.29,1.23,8.39,2.31,8.53,2.51.19.58,1.45,4.77.19,7.25a3.11,3.11,0,0,1-1.81,1.58H71.87v-.14A7.58,7.58,0,0,0,64.3,39.64ZM20.81,42.06a5.15,5.15,0,1,1-5.14,5.15A5.16,5.16,0,0,1,20.81,42.06Z"/><path class="cls-1" d="M81,85.78H4.78A4.79,4.79,0,0,1,0,81V4.78A4.79,4.79,0,0,1,4.78,0H81a4.79,4.79,0,0,1,4.78,4.78V81A4.79,4.79,0,0,1,81,85.78ZM4.78.9A3.88,3.88,0,0,0,.9,4.78V81a3.88,3.88,0,0,0,3.88,3.88H81A3.88,3.88,0,0,0,84.88,81V4.78A3.88,3.88,0,0,0,81,.9Z"/></g></g></svg>