<svg xmlns="http://www.w3.org/2000/svg" viewBox="0 0 85.78 85.78"><defs><style>.cls-1{fill:#fff;}</style></defs><g id="Capa_2" data-name="Capa 2"><g id="Capa_2-2" data-name="Capa 2"><path class="cls-1" d="M81,85.78H4.78A4.79,4.79,0,0,1,0,81V4.78A4.79,4.79,0,0,1,4.78,0H81a4.79,4.79,0,0,1,4.78,4.78V81A4.79,4.79,0,0,1,81,85.78ZM4.78.9A3.88,3.88,0,0,0,.9,4.78V81a3.88,3.88,0,0,0,3.88,3.88H81A3.88,3.88,0,0,0,84.88,81V4.78A3.88,3.88,0,0,0,81,.9Z"/><path class="cls-1" d="M22,65.89H19.28v2h3.15v.91H18.14V62.26h4.25v.92H19.28V65H22Z"/><path class="cls-1" d="M25.17,68a1,1,0,0,0,.68-.23.81.81,0,0,0,.28-.59h1a1.55,1.55,0,0,1-.29.84,1.71,1.71,0,0,1-.72.63,2.17,2.17,0,0,1-1,.23,2.08,2.08,0,0,1-1.62-.66,2.65,2.65,0,0,1-.6-1.83V66.3a2.62,2.62,0,0,1,.59-1.78,2.09,2.09,0,0,1,1.62-.67,2,2,0,0,1,1.42.51,1.81,1.81,0,0,1,.58,1.33h-1a1,1,0,0,0-.28-.69.93.93,0,0,0-.68-.27,1,1,0,0,0-.82.39,1.93,1.93,0,0,0-.3,1.17v.17a2,2,0,0,0,.29,1.18A1,1,0,0,0,25.17,68Z"/><path class="cls-1" d="M27.79,66.34a2.92,2.92,0,0,1,.28-1.3,2.13,2.13,0,0,1,.8-.88,2.31,2.31,0,0,1,1.18-.31,2.1,2.1,0,0,1,1.6.64,2.47,2.47,0,0,1,.67,1.68v.26a3,3,0,0,1-.27,1.29,2.07,2.07,0,0,1-.8.88,2.32,2.32,0,0,1-1.19.31,2.1,2.1,0,0,1-1.65-.69,2.65,2.65,0,0,1-.62-1.83Zm1.09.09a2,2,0,0,0,.32,1.18,1,1,0,0,0,.86.42,1,1,0,0,0,.86-.43,2.13,2.13,0,0,0,.31-1.26,1.9,1.9,0,0,0-.32-1.18,1.07,1.07,0,0,0-1.71,0A2.12,2.12,0,0,0,28.88,66.43Z"/><path class="cls-1" d="M34.26,63.94l0,.57a1.74,1.74,0,0,1,1.42-.66c1,0,1.53.58,1.55,1.75v3.22h-1.1V65.66A1,1,0,0,0,36,65a.82.82,0,0,0-.65-.22,1.05,1.05,0,0,0-1,.6v3.47h-1.1V63.94Z"/><path class="cls-1" d="M38.18,66.34a2.92,2.92,0,0,1,.28-1.3,2.13,2.13,0,0,1,.8-.88,2.28,2.28,0,0,1,1.18-.31,2.1,2.1,0,0,1,1.6.64,2.52,2.52,0,0,1,.67,1.68v.26a2.84,2.84,0,0,1-.28,1.29,2,2,0,0,1-.79.88,2.32,2.32,0,0,1-1.19.31,2.1,2.1,0,0,1-1.65-.69,2.6,2.6,0,0,1-.62-1.83Zm1.09.09a2,2,0,0,0,.31,1.18,1,1,0,0,0,.87.42,1,1,0,0,0,.86-.43,2.13,2.13,0,0,0,.31-1.26,2,2,0,0,0-.32-1.18,1,1,0,0,0-.86-.43,1,1,0,0,0-.85.43A2.12,2.12,0,0,0,39.27,66.43Zm1.47-4.53H42l-1.25,1.36h-.88Z"/><path class="cls-1" d="M44.67,63.94l0,.51a1.74,1.74,0,0,1,1.4-.6,1.34,1.34,0,0,1,1.34.75,1.74,1.74,0,0,1,1.5-.75,1.5,1.5,0,0,1,1.2.45,1.93,1.93,0,0,1,.4,1.31v3.21H49.45V65.65a1,1,0,0,0-.2-.68.88.88,0,0,0-.68-.22A.93.93,0,0,0,48,65a1,1,0,0,0-.33.52v3.35h-1.1V65.61a.78.78,0,0,0-.88-.86,1,1,0,0,0-.93.54v3.53h-1.1V63.94Z"/><path class="cls-1" d="M51.67,62.68a.57.57,0,0,1,.16-.42.71.71,0,0,1,.92,0,.61.61,0,0,1,.16.42.6.6,0,0,1-.16.41.74.74,0,0,1-.92,0A.56.56,0,0,1,51.67,62.68Zm1.16,6.14H51.74V63.94h1.09Z"/><path class="cls-1" d="M56,68a1,1,0,0,0,.68-.23.86.86,0,0,0,.29-.59h1a1.55,1.55,0,0,1-.29.84,1.71,1.71,0,0,1-.72.63,2.17,2.17,0,0,1-1,.23,2.08,2.08,0,0,1-1.62-.66,2.65,2.65,0,0,1-.6-1.83V66.3a2.62,2.62,0,0,1,.59-1.78A2.1,2.1,0,0,1,56,63.85a2,2,0,0,1,1.41.51A1.81,1.81,0,0,1,58,65.69H57a1,1,0,0,0-.29-.69.93.93,0,0,0-.68-.27,1,1,0,0,0-.82.39,1.93,1.93,0,0,0-.3,1.17v.17a2,2,0,0,0,.29,1.18A1,1,0,0,0,56,68Z"/><path class="cls-1" d="M58.65,66.34a3.06,3.06,0,0,1,.28-1.3,2.13,2.13,0,0,1,.8-.88,2.31,2.31,0,0,1,1.18-.31,2.1,2.1,0,0,1,1.6.64,2.47,2.47,0,0,1,.67,1.68v.26a3,3,0,0,1-.27,1.29,2.07,2.07,0,0,1-.8.88,2.32,2.32,0,0,1-1.19.31,2.1,2.1,0,0,1-1.65-.69,2.65,2.65,0,0,1-.62-1.83Zm1.1.09a2,2,0,0,0,.31,1.18,1,1,0,0,0,.86.42,1,1,0,0,0,.86-.43,2.13,2.13,0,0,0,.31-1.26,2,2,0,0,0-.31-1.18,1,1,0,0,0-.87-.43,1,1,0,0,0-.85.43A2.12,2.12,0,0,0,59.75,66.43Z"/><path class="cls-1" d="M66.84,67.49a.49.49,0,0,0-.24-.44,2.43,2.43,0,0,0-.8-.27,4.24,4.24,0,0,1-.93-.3,1.25,1.25,0,0,1-.82-1.15,1.3,1.3,0,0,1,.53-1,2.08,2.08,0,0,1,1.35-.43,2.25,2.25,0,0,1,1.42.43,1.38,1.38,0,0,1,.53,1.13H66.79a.68.68,0,0,0-.24-.53.88.88,0,0,0-.62-.21,1,1,0,0,0-.59.17.52.52,0,0,0-.22.45.46.46,0,0,0,.21.39,3.23,3.23,0,0,0,.86.28,3.94,3.94,0,0,1,1,.34,1.4,1.4,0,0,1,.54.47,1.16,1.16,0,0,1,.18.66,1.28,1.28,0,0,1-.54,1.07,2.35,2.35,0,0,1-1.43.41,2.44,2.44,0,0,1-1.07-.22,1.72,1.72,0,0,1-.73-.59,1.4,1.4,0,0,1-.26-.82H65a.79.79,0,0,0,.29.6,1.14,1.14,0,0,0,.72.21,1.11,1.11,0,0,0,.66-.17A.5.5,0,0,0,66.84,67.49Z"/><rect class="cls-1" x="5.75" y="5.45" width="15.71" height="15.71" rx="7.85"/><path class="cls-1" d="M77.37,48.47,76.89,46a7.91,7.91,0,0,0-3-8.55c-3.8-2.93-12.5-4.2-17.74-4.37-1.58-1.22-7.14-5.41-9.67-6.21-3.11-1-14.08-.83-21.49,2-2.37.89-3.45,1.31-4.15,1.58s-1,.37-1.68.63l-.14,0-.35-.3a8.47,8.47,0,0,0-1.87-1.35c-1.63-.83-5.95-1-7.53,0a1.81,1.81,0,0,0-.93,1.54,3.82,3.82,0,0,0,.72,2,3.37,3.37,0,0,1,.65,1.81,13.49,13.49,0,0,1-.25,1.41c-.74,3.58-2.47,12,5.1,13.66l.26,0a7.82,7.82,0,0,0,14.53.52h0c9.91.13,22.3.17,27.16.19h0l.17,0a7.8,7.8,0,0,0,14.15,0l.16,0h.12l5-.42a1.39,1.39,0,0,0,1.25-1.65ZM22.23,52.24a5.09,5.09,0,1,1,5.05-5.09A5.08,5.08,0,0,1,22.23,52.24Zm41.58,0a5.09,5.09,0,1,1,5.06-5.09A5.07,5.07,0,0,1,63.81,52.24Zm10.27-6.12.26,1.36-1.88.15c-.3-4.93-4.07-8.83-8.65-8.83s-8.4,4-8.66,9c-5.28,0-15.56-.06-24.32-.16-.33-4.91-4.08-8.79-8.65-8.79a8.93,8.93,0,0,0-8.52,7.71c-1.9-1.09-2.71-3.61-1.43-9.8a10.8,10.8,0,0,0,.31-2,6,6,0,0,0-1-3.16,10.12,10.12,0,0,1,4,.31,5.5,5.5,0,0,1,1.27.93,2.91,2.91,0,0,0,3.31.81c.75-.27,1.09-.4,1.74-.65s1.77-.69,4.12-1.58c7.05-2.67,17.38-2.65,19.67-1.92,1.77.56,6.45,3.91,9.16,6a1.39,1.39,0,0,0,.83.29c5.87.13,13.68,1.58,16.57,3.81a5.1,5.1,0,0,1,1.91,5.74A1.45,1.45,0,0,0,74.08,46.12Z"/></g></g></svg>