<svg xmlns="http://www.w3.org/2000/svg" viewBox="0 0 85.78 85.78"><defs><style>.cls-1{fill:#fff;}</style></defs><g id="Capa_2" data-name="Capa 2"><g id="Capa_2-2" data-name="Capa 2"><path class="cls-1" d="M36.35,62.5a2.34,2.34,0,0,1-.77,1.64,2.65,2.65,0,0,1-1.8.59,2.55,2.55,0,0,1-1.38-.37,2.39,2.39,0,0,1-.92-1.06,3.76,3.76,0,0,1-.34-1.59V61.1a3.84,3.84,0,0,1,.33-1.64,2.51,2.51,0,0,1,.94-1.09A2.67,2.67,0,0,1,33.83,58a2.49,2.49,0,0,1,1.75.59,2.43,2.43,0,0,1,.77,1.66H35.22a1.67,1.67,0,0,0-.42-1,1.55,1.55,0,0,0-2.11.23,2.73,2.73,0,0,0-.41,1.6v.58a2.89,2.89,0,0,0,.38,1.62,1.29,1.29,0,0,0,1.12.56,1.49,1.49,0,0,0,1-.3,1.61,1.61,0,0,0,.43-1Z"/><path class="cls-1" d="M40.18,64.64a1.64,1.64,0,0,1-.13-.46,1.68,1.68,0,0,1-1.28.55,1.72,1.72,0,0,1-1.2-.42,1.33,1.33,0,0,1-.46-1,1.37,1.37,0,0,1,.58-1.19,2.77,2.77,0,0,1,1.65-.42H40v-.32a.85.85,0,0,0-.22-.6.8.8,0,0,0-.64-.23,1,1,0,0,0-.61.18.6.6,0,0,0-.24.48h-1.1a1.19,1.19,0,0,1,.27-.75,1.82,1.82,0,0,1,.72-.55,2.61,2.61,0,0,1,1-.2,2.1,2.1,0,0,1,1.37.43,1.54,1.54,0,0,1,.52,1.21v2.2a2.38,2.38,0,0,0,.19,1.05v.08ZM39,63.85a1.25,1.25,0,0,0,.62-.16,1,1,0,0,0,.43-.42v-.92h-.59a1.62,1.62,0,0,0-.92.21.7.7,0,0,0-.31.6.63.63,0,0,0,.21.5A.79.79,0,0,0,39,63.85Z"/><path class="cls-1" d="M44.81,60.76a3.19,3.19,0,0,0-.45,0,1,1,0,0,0-1,.58v3.33H42.26V59.76h1l0,.55a1.24,1.24,0,0,1,1.1-.64.94.94,0,0,1,.39.07Z"/><path class="cls-1" d="M45.31,62.17a2.9,2.9,0,0,1,.53-1.82,1.73,1.73,0,0,1,1.42-.68,1.59,1.59,0,0,1,1.31.59l0-.5h1v4.73A2,2,0,0,1,49,66a2.31,2.31,0,0,1-1.61.55,2.57,2.57,0,0,1-1-.22,1.82,1.82,0,0,1-.77-.59l.51-.65a1.61,1.61,0,0,0,1.25.59,1.2,1.2,0,0,0,.86-.29,1.14,1.14,0,0,0,.31-.87V64.2a1.6,1.6,0,0,1-1.26.53,1.73,1.73,0,0,1-1.4-.68A2.94,2.94,0,0,1,45.31,62.17Zm1.09.09a2,2,0,0,0,.3,1.16,1,1,0,0,0,.83.42,1,1,0,0,0,1-.57V61.12a1,1,0,0,0-1-.55,1,1,0,0,0-.84.43A2.19,2.19,0,0,0,46.4,62.26Z"/><path class="cls-1" d="M53.65,64.64a1.64,1.64,0,0,1-.13-.46,1.68,1.68,0,0,1-1.28.55,1.72,1.72,0,0,1-1.2-.42,1.33,1.33,0,0,1-.46-1,1.37,1.37,0,0,1,.58-1.19,2.77,2.77,0,0,1,1.65-.42h.68v-.32a.85.85,0,0,0-.22-.6.8.8,0,0,0-.64-.23,1,1,0,0,0-.61.18.6.6,0,0,0-.24.48h-1.1a1.19,1.19,0,0,1,.27-.75,1.82,1.82,0,0,1,.72-.55,2.61,2.61,0,0,1,1-.2,2.1,2.1,0,0,1,1.37.43,1.54,1.54,0,0,1,.52,1.21v2.2a2.38,2.38,0,0,0,.19,1.05v.08Zm-1.21-.79a1.18,1.18,0,0,0,.61-.16,1,1,0,0,0,.44-.42v-.92H52.9a1.62,1.62,0,0,0-.92.21.7.7,0,0,0-.31.6.63.63,0,0,0,.21.5A.79.79,0,0,0,52.44,63.85Z"/><rect class="cls-1" x="5.45" y="5.67" width="15.71" height="15.71" rx="7.85"/><path class="cls-1" d="M80.65,42.5a2,2,0,0,0-.83-1.5V37.46a1.71,1.71,0,0,0-.18-.77l-.18-.37c0-.08-.09-.16-.14-.23a5.37,5.37,0,0,0-2.84-1.87C72,32.85,62.66,32.6,62.57,32.59h0a2.87,2.87,0,0,1-.75-.07,65.24,65.24,0,0,0-8.23-5.36l-.18-.08c-4.84-1.93-17.9-1.46-21.78-1.27A1.71,1.71,0,0,0,30,27.08l-.16.57,0,.13c-.33,1.72-.54,3.06-.62,4l-19.43-.7H9.5L7,31.43l-.14,0A1.66,1.66,0,0,0,5.6,33.2a1.87,1.87,0,0,0,.14.62L5.8,34a1,1,0,0,0,0,.16l-.08,1a.61.61,0,0,0,0,.14v4.9a1.71,1.71,0,0,0-.83,1.47v3A1.71,1.71,0,0,0,6.47,46.3l8.37.49a7,7,0,0,0,13.74,1.58l31.73.16a7,7,0,0,0,13.5-.08l3.7-.33a1.81,1.81,0,0,0,.74-.25c1.82-1.13,2.29-4.18,2.39-5.09A1.31,1.31,0,0,0,80.65,42.5ZM74,45.93a7,7,0,0,0-13.85.1l-31.41-.16a7,7,0,0,0-13.43-1.56l-7.92-.46V42.17a1.78,1.78,0,0,0,.56-.47,1.69,1.69,0,0,0,.32-1.46L8.19,40V35.23l.07-.85,0-.08a1.53,1.53,0,0,0,.05-.52l1.43-.19,20.14.73a1.67,1.67,0,0,0,1.25-.48,1.65,1.65,0,0,0,.52-1.23,26.2,26.2,0,0,1,.62-4.33c1.62-.07,5.24-.2,9.07-.14,6.77.11,9.74.73,11,1.24a60,60,0,0,1,7.9,5.16,1.67,1.67,0,0,0,.28.18,4.09,4.09,0,0,0,1.93.37c.4,0,9.21.29,13.25,1.53l.08,0a2.9,2.9,0,0,1,1.4.86l.07.14v3.78a1.71,1.71,0,0,0,.79,1.44,5.56,5.56,0,0,1-1.06,2.79Zm-6.92,5.29a4.47,4.47,0,0,1-4.44-4s0-.08,0-.12,0-.24,0-.36a4.47,4.47,0,1,1,4.47,4.47ZM21.8,42.28a4.47,4.47,0,1,1-4.47,4.47A4.47,4.47,0,0,1,21.8,42.28Z"/><path class="cls-1" d="M81,85.78H4.78A4.79,4.79,0,0,1,0,81V4.78A4.79,4.79,0,0,1,4.78,0H81a4.79,4.79,0,0,1,4.78,4.78V81A4.79,4.79,0,0,1,81,85.78ZM4.78.9A3.88,3.88,0,0,0,.9,4.78V81a3.88,3.88,0,0,0,3.88,3.88H81A3.88,3.88,0,0,0,84.88,81V4.78A3.88,3.88,0,0,0,81,.9Z"/></g></g></svg>