<svg xmlns="http://www.w3.org/2000/svg" viewBox="0 0 999.23 287"><defs><style>.cls-1{fill:#f7f7f7;}.cls-2{fill:#999;}.cls-3{fill:#fff;}.cls-4{fill:#ea4335;}.cls-5{fill:#fbbc04;}.cls-6{fill:#34a853;}.cls-7{fill:#188038;}.cls-8{fill:#1967d2;}.cls-9{fill:#4285f4;}.cls-10{fill:#666;}</style></defs><g id="Capa_2" data-name="Capa 2"><g id="Capa_1-2" data-name="Capa 1"><rect class="cls-1" x="2.5" y="2.5" width="994.23" height="282" rx="81.01"/><path class="cls-2" d="M915.72,287H83.51A83.6,83.6,0,0,1,0,203.49v-120A83.6,83.6,0,0,1,83.51,0H915.72a83.6,83.6,0,0,1,83.51,83.51v120A83.6,83.6,0,0,1,915.72,287ZM83.51,5A78.6,78.6,0,0,0,5,83.51v120A78.6,78.6,0,0,0,83.51,282H915.72a78.6,78.6,0,0,0,78.51-78.51v-120A78.6,78.6,0,0,0,915.72,5Z"/><rect class="cls-3" x="226.31" y="96.69" width="93.65" height="93.65"/><polygon class="cls-4" points="319.92 232.46 362.07 190.31 319.92 190.31 319.92 232.46"/><rect class="cls-5" x="319.92" y="96.69" width="42.15" height="93.65"/><rect class="cls-6" x="226.31" y="190.31" width="93.65" height="42.15"/><path class="cls-7" d="M184.16,190.31v28.07a14.05,14.05,0,0,0,14,14.08h28.07V190.31Z"/><path class="cls-8" d="M362.07,96.69V68.58a14,14,0,0,0-14-14H320V96.69Z"/><path class="cls-9" d="M319.92,54.54H198.2a14,14,0,0,0-14,14V190.31h42.15V96.69H320V54.54Z"/><path class="cls-9" d="M245.49,169.32a18.12,18.12,0,0,1-7.26-10.39l8.13-3.34a12.29,12.29,0,0,0,3.86,6.54,10.1,10.1,0,0,0,6.63,2.29A10.22,10.22,0,0,0,263.7,162a7.81,7.81,0,0,0,2.88-6.19,7.69,7.69,0,0,0-3-6.25,11.86,11.86,0,0,0-7.58-2.44h-4.69v-8h4.21a10.2,10.2,0,0,0,6.57-2.12,7,7,0,0,0,2.67-5.77,6.32,6.32,0,0,0-2.4-5.21,9.32,9.32,0,0,0-6-1.95,8.15,8.15,0,0,0-5.7,1.91,11.2,11.2,0,0,0-3.06,4.69l-8-3.33a18,18,0,0,1,5.88-8,17.09,17.09,0,0,1,11-3.47,19.85,19.85,0,0,1,8.86,1.91,15.68,15.68,0,0,1,6.18,5.28,13.45,13.45,0,0,1,2.23,7.61,12.47,12.47,0,0,1-2.09,7.3,14.62,14.62,0,0,1-5.11,4.59V143a15.5,15.5,0,0,1,6.54,5.11,13.35,13.35,0,0,1,2.53,8.2,15.22,15.22,0,0,1-2.43,8.52,16.72,16.72,0,0,1-6.67,5.87,21.23,21.23,0,0,1-9.59,2.15A20,20,0,0,1,245.49,169.32ZM295.39,129l-8.93,6.46L282,128.7l16-11.54h6.15v54.45h-8.76Z"/><path class="cls-10" d="M433.73,127.68h-4.32a1.86,1.86,0,0,1-1.21-.37,2.27,2.27,0,0,1-.69-1l-3.86-10H405.14l-3.86,10a2.14,2.14,0,0,1-.66.92,1.84,1.84,0,0,1-1.21.4h-4.32l16.5-41.26h5.64Zm-11.64-15.32-6.47-16.78c-.2-.5-.4-1.08-.61-1.74s-.41-1.37-.6-2.12a32.94,32.94,0,0,1-1.24,3.89l-6.48,16.75Z"/><path class="cls-10" d="M462.58,99.67v1.9c0,.63-.41,1-1.21,1.21l-3.32.43a9.51,9.51,0,0,1,.16,8.07,8.77,8.77,0,0,1-2.26,3,10.28,10.28,0,0,1-3.45,1.9,14,14,0,0,1-4.38.66,15.06,15.06,0,0,1-3.86-.49,5.26,5.26,0,0,0-1.41,1.22,2.2,2.2,0,0,0-.49,1.31,1.75,1.75,0,0,0,.85,1.57,6,6,0,0,0,2.23.76,23.53,23.53,0,0,0,3.16.29c1.18,0,2.39.1,3.62.19a32.72,32.72,0,0,1,3.63.45,10.9,10.9,0,0,1,3.15,1,5.9,5.9,0,0,1,2.24,2,5.83,5.83,0,0,1,.85,3.28,7.67,7.67,0,0,1-.94,3.63,9.75,9.75,0,0,1-2.69,3.12,14,14,0,0,1-4.31,2.19,18.59,18.59,0,0,1-5.74.82,22.13,22.13,0,0,1-5.59-.63,13.12,13.12,0,0,1-4-1.7,7.27,7.27,0,0,1-2.37-2.46,5.84,5.84,0,0,1-.8-2.92,5.24,5.24,0,0,1,1.36-3.66,9.28,9.28,0,0,1,3.71-2.39,5.45,5.45,0,0,1-2.06-1.54,4.07,4.07,0,0,1-.76-2.61,4.16,4.16,0,0,1,.23-1.31,5.17,5.17,0,0,1,.71-1.35,6.89,6.89,0,0,1,1.16-1.28,7.91,7.91,0,0,1,1.61-1.07,9.18,9.18,0,0,1-3.75-11.73,8.54,8.54,0,0,1,2.29-3,10.44,10.44,0,0,1,3.49-1.88,14.37,14.37,0,0,1,4.45-.66,14.69,14.69,0,0,1,3.54.41,11.26,11.26,0,0,1,3,1.23Zm-5.22,29.6a2.48,2.48,0,0,0-.6-1.73,4.06,4.06,0,0,0-1.63-1,10.12,10.12,0,0,0-2.37-.53c-.91-.11-1.86-.19-2.87-.25l-3.06-.17c-1-.06-2-.15-3-.29a8,8,0,0,0-2.63,1.89,3.87,3.87,0,0,0-1,2.66,3.48,3.48,0,0,0,.5,1.83,4.2,4.2,0,0,0,1.54,1.47,9.07,9.07,0,0,0,2.61,1,16.58,16.58,0,0,0,3.69.36,16.76,16.76,0,0,0,3.72-.38A9.43,9.43,0,0,0,455,133a5.2,5.2,0,0,0,1.74-1.64A3.89,3.89,0,0,0,457.36,129.27Zm-9.24-15.84a7.92,7.92,0,0,0,2.74-.43,5.55,5.55,0,0,0,2-1.21,5,5,0,0,0,1.21-1.86,6.7,6.7,0,0,0,.41-2.37,5.67,5.67,0,0,0-1.63-4.26,7.8,7.8,0,0,0-9.44,0,5.64,5.64,0,0,0-1.63,4.26,6.49,6.49,0,0,0,.42,2.37,5,5,0,0,0,1.22,1.86,5.6,5.6,0,0,0,2,1.21A7.82,7.82,0,0,0,448.12,113.43Z"/><path class="cls-10" d="M472.77,104.36a13.2,13.2,0,0,1,3.39-4.68,8,8,0,0,1,6.7-1.48,4.64,4.64,0,0,1,1.51.63l-.37,3.83a.83.83,0,0,1-.87.72,6.31,6.31,0,0,1-1.18-.17,7.81,7.81,0,0,0-1.75-.17,7,7,0,0,0-2.47.4,5.93,5.93,0,0,0-1.93,1.19,8.57,8.57,0,0,0-1.52,2,17.49,17.49,0,0,0-1.23,2.67v18.42H467.9V98.52h2.94a1.63,1.63,0,0,1,1.15.31,2,2,0,0,1,.43,1.1Z"/><path class="cls-10" d="M511.35,123.59a9.56,9.56,0,0,1-2.28,2,13.56,13.56,0,0,1-2.83,1.4,17.35,17.35,0,0,1-3.13.82,19.28,19.28,0,0,1-3.19.28,14.84,14.84,0,0,1-5.57-1,12.28,12.28,0,0,1-4.41-3,13.72,13.72,0,0,1-2.89-4.88,19.89,19.89,0,0,1-1-6.68,16.79,16.79,0,0,1,.94-5.7,13.28,13.28,0,0,1,2.69-4.59,12.35,12.35,0,0,1,4.29-3.06,14.24,14.24,0,0,1,5.7-1.1,13.23,13.23,0,0,1,4.85.87,11,11,0,0,1,3.86,2.54,11.66,11.66,0,0,1,2.55,4.09,15.62,15.62,0,0,1,.92,5.54,3.38,3.38,0,0,1-.26,1.61,1.07,1.07,0,0,1-1,.4H491.08a17.14,17.14,0,0,0,.76,4.81,9.59,9.59,0,0,0,1.89,3.41,7.43,7.43,0,0,0,2.88,2,9.89,9.89,0,0,0,3.74.67,11,11,0,0,0,3.33-.44,15.5,15.5,0,0,0,2.4-1,16.67,16.67,0,0,0,1.68-1,2.22,2.22,0,0,1,1.17-.45,1.15,1.15,0,0,1,1,.49Zm-4.15-13.67a10.29,10.29,0,0,0-.5-3.27,7.43,7.43,0,0,0-1.47-2.56,6.51,6.51,0,0,0-2.35-1.67,7.77,7.77,0,0,0-3.13-.59,7.89,7.89,0,0,0-5.84,2.14,10.07,10.07,0,0,0-2.66,6Z"/><path class="cls-10" d="M542.7,99.67v1.9c0,.63-.4,1-1.21,1.21l-3.31.43a9.09,9.09,0,0,1,1,4.2,8.86,8.86,0,0,1-3.08,6.86,10.28,10.28,0,0,1-3.45,1.9,14.06,14.06,0,0,1-4.38.66,15.06,15.06,0,0,1-3.86-.49,5.26,5.26,0,0,0-1.41,1.22,2.14,2.14,0,0,0-.49,1.31,1.73,1.73,0,0,0,.85,1.57,6,6,0,0,0,2.23.76,23.22,23.22,0,0,0,3.15.29c1.18,0,2.39.1,3.63.19a32.72,32.72,0,0,1,3.63.45,10.9,10.9,0,0,1,3.15,1,5.87,5.87,0,0,1,2.23,2,5.75,5.75,0,0,1,.85,3.28,7.66,7.66,0,0,1-.93,3.63,9.87,9.87,0,0,1-2.69,3.12,14.07,14.07,0,0,1-4.31,2.19,18.59,18.59,0,0,1-5.74.82,22.07,22.07,0,0,1-5.59-.63,13,13,0,0,1-4-1.7,7.4,7.4,0,0,1-2.38-2.46,5.83,5.83,0,0,1-.79-2.92,5.27,5.27,0,0,1,1.35-3.66,9.32,9.32,0,0,1,3.72-2.39,5.37,5.37,0,0,1-2.06-1.54,4.07,4.07,0,0,1-.76-2.61,3.89,3.89,0,0,1,.23-1.31,5.45,5.45,0,0,1,.7-1.35,7.33,7.33,0,0,1,1.17-1.28,7.91,7.91,0,0,1,1.61-1.07,8.63,8.63,0,0,1-4.58-7.86,9.06,9.06,0,0,1,.82-3.87,8.66,8.66,0,0,1,2.29-3,10.59,10.59,0,0,1,3.5-1.88,14.32,14.32,0,0,1,4.45-.66,14.69,14.69,0,0,1,3.54.41,11.2,11.2,0,0,1,3,1.23Zm-5.21,29.6a2.48,2.48,0,0,0-.6-1.73,4.13,4.13,0,0,0-1.63-1,10.09,10.09,0,0,0-2.38-.53c-.9-.11-1.85-.19-2.86-.25l-3.07-.17c-1-.06-2-.15-3-.29a8.09,8.09,0,0,0-2.64,1.89,3.87,3.87,0,0,0-1,2.66,3.49,3.49,0,0,0,.51,1.83,4.2,4.2,0,0,0,1.54,1.47,9.11,9.11,0,0,0,2.6,1,18.79,18.79,0,0,0,7.42,0,9.26,9.26,0,0,0,2.77-1.06,5.33,5.33,0,0,0,1.75-1.64A3.89,3.89,0,0,0,537.49,129.27Zm-9.24-15.84A7.82,7.82,0,0,0,531,113a5.6,5.6,0,0,0,2-1.21,5,5,0,0,0,1.21-1.86,6.7,6.7,0,0,0,.4-2.37A5.67,5.67,0,0,0,533,103.3a7.82,7.82,0,0,0-9.45,0,5.67,5.67,0,0,0-1.62,4.26,6.48,6.48,0,0,0,.41,2.37,5.13,5.13,0,0,0,1.23,1.86,5.55,5.55,0,0,0,2,1.21A7.92,7.92,0,0,0,528.25,113.43Z"/><path class="cls-10" d="M547.28,102.63a16.75,16.75,0,0,1,5.21-3.48A16.06,16.06,0,0,1,558.68,98a11.21,11.21,0,0,1,4.35.8,9,9,0,0,1,3.2,2.25,9.54,9.54,0,0,1,1.95,3.48,14.58,14.58,0,0,1,.67,4.49v18.66h-2.28a2.26,2.26,0,0,1-1.15-.24,1.68,1.68,0,0,1-.63-1l-.58-2.76a27.33,27.33,0,0,1-2.25,1.88,12.92,12.92,0,0,1-2.3,1.39,12.61,12.61,0,0,1-2.58.86,14.14,14.14,0,0,1-3,.3,10.72,10.72,0,0,1-3.2-.47,7.35,7.35,0,0,1-2.61-1.43,6.72,6.72,0,0,1-1.75-2.4,8.45,8.45,0,0,1-.65-3.44,6.48,6.48,0,0,1,.95-3.33,8.29,8.29,0,0,1,3.08-2.83,19.76,19.76,0,0,1,5.56-2,42.32,42.32,0,0,1,8.4-.91V109a7.77,7.77,0,0,0-1.46-5.13,5.28,5.28,0,0,0-4.29-1.75,9.1,9.1,0,0,0-3.18.48,12.1,12.1,0,0,0-2.22,1.06c-.63.4-1.16.75-1.61,1.07a2.32,2.32,0,0,1-1.34.47,1.5,1.5,0,0,1-.9-.27,2.41,2.41,0,0,1-.63-.68Zm16.55,11.92a44.38,44.38,0,0,0-6,.56,17.31,17.31,0,0,0-4.06,1.17,5.65,5.65,0,0,0-2.27,1.7,3.65,3.65,0,0,0-.71,2.19,4.76,4.76,0,0,0,.38,2,3.65,3.65,0,0,0,1,1.37,4,4,0,0,0,1.53.78,7.07,7.07,0,0,0,1.88.24,10.65,10.65,0,0,0,2.48-.27,9.36,9.36,0,0,0,2.11-.79,11.69,11.69,0,0,0,1.9-1.24,15.86,15.86,0,0,0,1.77-1.64Z"/><path class="cls-10" d="M581.51,104.36a13.34,13.34,0,0,1,3.4-4.68A7.43,7.43,0,0,1,589.83,98a7.28,7.28,0,0,1,1.77.2,4.6,4.6,0,0,1,1.52.63l-.38,3.83a.82.82,0,0,1-.86.72,6.31,6.31,0,0,1-1.18-.17,7.9,7.9,0,0,0-1.76-.17,7,7,0,0,0-2.46.4,5.93,5.93,0,0,0-1.93,1.19,8.6,8.6,0,0,0-1.53,2,17.49,17.49,0,0,0-1.22,2.67v18.42h-5.15V98.52h2.93a1.66,1.66,0,0,1,1.16.31,2,2,0,0,1,.43,1.1Z"/><path class="cls-10" d="M610.39,102.63a16.75,16.75,0,0,1,5.21-3.48A16.06,16.06,0,0,1,621.79,98a11.21,11.21,0,0,1,4.35.8,9,9,0,0,1,3.2,2.25,9.54,9.54,0,0,1,1.95,3.48A14.29,14.29,0,0,1,632,109v18.66h-2.28a2.26,2.26,0,0,1-1.15-.24,1.68,1.68,0,0,1-.63-1l-.58-2.76a29,29,0,0,1-2.24,1.88,13,13,0,0,1-2.31,1.39,12.41,12.41,0,0,1-2.58.86,14.14,14.14,0,0,1-3,.3,10.72,10.72,0,0,1-3.2-.47,7.22,7.22,0,0,1-2.6-1.43,6.63,6.63,0,0,1-1.76-2.4,8.45,8.45,0,0,1-.65-3.44,6.48,6.48,0,0,1,.95-3.33,8.37,8.37,0,0,1,3.08-2.83,19.88,19.88,0,0,1,5.56-2,42.43,42.43,0,0,1,8.41-.91V109a7.77,7.77,0,0,0-1.47-5.13,5.28,5.28,0,0,0-4.29-1.75,9.1,9.1,0,0,0-3.18.48,12.1,12.1,0,0,0-2.22,1.06c-.62.4-1.16.75-1.61,1.07a2.3,2.3,0,0,1-1.34.47A1.47,1.47,0,0,1,612,105a2.6,2.6,0,0,1-.64-.68ZM627,114.55a44.55,44.55,0,0,0-6,.56,17.31,17.31,0,0,0-4.06,1.17,5.65,5.65,0,0,0-2.27,1.7,3.64,3.64,0,0,0-.7,2.19,4.76,4.76,0,0,0,.37,2,3.65,3.65,0,0,0,1,1.37,4,4,0,0,0,1.53.78,7.07,7.07,0,0,0,1.88.24,10.59,10.59,0,0,0,2.48-.27,9.63,9.63,0,0,0,2.12-.79,12.62,12.62,0,0,0,1.9-1.24A17.82,17.82,0,0,0,627,120.6Z"/><path class="cls-10" d="M433.7,176.94v15.84a23.22,23.22,0,0,1-6.64,3.36,26,26,0,0,1-7.73,1.1,24.77,24.77,0,0,1-9-1.54,19.57,19.57,0,0,1-6.84-4.32,18.71,18.71,0,0,1-4.36-6.66,23.14,23.14,0,0,1-1.53-8.55,24.16,24.16,0,0,1,1.48-8.61,19.22,19.22,0,0,1,4.22-6.67,18.86,18.86,0,0,1,6.65-4.3,23.89,23.89,0,0,1,8.76-1.53,26.87,26.87,0,0,1,4.54.36,20.84,20.84,0,0,1,3.89,1,18.22,18.22,0,0,1,3.31,1.64,20.2,20.2,0,0,1,2.85,2.17l-1.58,2.54a1.54,1.54,0,0,1-2.27.46c-.47-.27-1-.6-1.59-1a14.5,14.5,0,0,0-2.17-1.11,18,18,0,0,0-3-.91,19.82,19.82,0,0,0-4.13-.37,16.67,16.67,0,0,0-6.3,1.14,13.34,13.34,0,0,0-4.81,3.25,14.44,14.44,0,0,0-3.05,5.13,20.08,20.08,0,0,0-1.07,6.75,20.31,20.31,0,0,0,1.11,7,14.56,14.56,0,0,0,3.17,5.21,13.54,13.54,0,0,0,5,3.27,20.31,20.31,0,0,0,11.71.48,23.33,23.33,0,0,0,4.36-1.8v-9.07h-6.42a1.22,1.22,0,0,1-.88-.32,1,1,0,0,1-.33-.78v-3.17Z"/><path class="cls-10" d="M453,167.16a14.89,14.89,0,0,1,5.76,1.06,12.36,12.36,0,0,1,4.37,3A13.3,13.3,0,0,1,465.9,176a20.36,20.36,0,0,1,0,12.42,13.25,13.25,0,0,1-2.78,4.73,12.34,12.34,0,0,1-4.37,3,16.43,16.43,0,0,1-11.56,0,12.33,12.33,0,0,1-4.39-3A13.25,13.25,0,0,1,440,188.4,20.36,20.36,0,0,1,440,176a13.3,13.3,0,0,1,2.78-4.74,12.35,12.35,0,0,1,4.39-3A15,15,0,0,1,453,167.16Zm0,26q4.32,0,6.45-2.89t2.13-8.08q0-5.21-2.13-8.12a7.49,7.49,0,0,0-6.45-2.9,9.07,9.07,0,0,0-3.82.75,7.09,7.09,0,0,0-2.7,2.15,9.78,9.78,0,0,0-1.62,3.47,18.93,18.93,0,0,0-.53,4.65q0,5.19,2.15,8.08T453,193.18Z"/><path class="cls-10" d="M485.64,167.16a14.89,14.89,0,0,1,5.76,1.06,12.45,12.45,0,0,1,4.37,3,13.3,13.3,0,0,1,2.78,4.74,20.36,20.36,0,0,1,0,12.42,13.25,13.25,0,0,1-2.78,4.73,12.43,12.43,0,0,1-4.37,3,16.43,16.43,0,0,1-11.56,0,12.24,12.24,0,0,1-4.39-3,13.25,13.25,0,0,1-2.78-4.73,20.36,20.36,0,0,1,0-12.42,13.3,13.3,0,0,1,2.78-4.74,12.27,12.27,0,0,1,4.39-3A15,15,0,0,1,485.64,167.16Zm0,26q4.32,0,6.45-2.89t2.13-8.08q0-5.21-2.13-8.12a7.49,7.49,0,0,0-6.45-2.9,9.07,9.07,0,0,0-3.82.75,7.09,7.09,0,0,0-2.7,2.15,9.78,9.78,0,0,0-1.62,3.47,18.93,18.93,0,0,0-.53,4.65q0,5.19,2.15,8.08T485.64,193.18Z"/><path class="cls-10" d="M530.47,168.77v1.9c0,.63-.41,1-1.21,1.21l-3.31.43a9.08,9.08,0,0,1,1,4.2,9,9,0,0,1-.82,3.88,8.83,8.83,0,0,1-2.26,3,10.28,10.28,0,0,1-3.45,1.9,14,14,0,0,1-4.38.66,14.63,14.63,0,0,1-3.86-.49,5.26,5.26,0,0,0-1.41,1.22,2.2,2.2,0,0,0-.49,1.31,1.75,1.75,0,0,0,.85,1.57,6,6,0,0,0,2.23.76,23.53,23.53,0,0,0,3.16.29c1.18,0,2.39.1,3.63.19a35.44,35.44,0,0,1,3.62.45,11.07,11.07,0,0,1,3.16,1,5.94,5.94,0,0,1,2.23,2,5.83,5.83,0,0,1,.85,3.28,7.67,7.67,0,0,1-.94,3.63,9.75,9.75,0,0,1-2.69,3.12,14,14,0,0,1-4.31,2.19,18.55,18.55,0,0,1-5.74.82,22.13,22.13,0,0,1-5.59-.63,13.12,13.12,0,0,1-4-1.7,7.36,7.36,0,0,1-2.37-2.46,5.84,5.84,0,0,1-.8-2.92,5.28,5.28,0,0,1,1.36-3.66,9.28,9.28,0,0,1,3.71-2.39,5.35,5.35,0,0,1-2.06-1.54,4.07,4.07,0,0,1-.76-2.61,4.16,4.16,0,0,1,.23-1.31,5.17,5.17,0,0,1,.71-1.35,6.89,6.89,0,0,1,1.16-1.28,7.91,7.91,0,0,1,1.61-1.07,8.87,8.87,0,0,1-3.36-3.21,8.76,8.76,0,0,1-1.21-4.65,8.92,8.92,0,0,1,.82-3.87,8.41,8.41,0,0,1,2.29-3,10.28,10.28,0,0,1,3.49-1.89,14.37,14.37,0,0,1,4.45-.66,14.69,14.69,0,0,1,3.54.41,11.13,11.13,0,0,1,3,1.23Zm-5.22,29.6a2.48,2.48,0,0,0-.6-1.73,4.06,4.06,0,0,0-1.63-1,10.65,10.65,0,0,0-2.37-.53c-.9-.11-1.86-.19-2.87-.25l-3.06-.17c-1-.06-2-.15-3-.29a8,8,0,0,0-2.63,1.89,3.87,3.87,0,0,0-1,2.66,3.45,3.45,0,0,0,.5,1.83,4.28,4.28,0,0,0,1.54,1.47,9.07,9.07,0,0,0,2.61,1,18.74,18.74,0,0,0,7.41,0,9.16,9.16,0,0,0,2.78-1.06,5.2,5.2,0,0,0,1.74-1.64A3.89,3.89,0,0,0,525.25,198.37ZM516,182.53a7.92,7.92,0,0,0,2.74-.43,5.55,5.55,0,0,0,2-1.21,5,5,0,0,0,1.21-1.86,6.7,6.7,0,0,0,.41-2.37,5.67,5.67,0,0,0-1.63-4.26,7.8,7.8,0,0,0-9.44,0,5.64,5.64,0,0,0-1.63,4.26,6.49,6.49,0,0,0,.42,2.37,5.1,5.1,0,0,0,1.22,1.86,5.6,5.6,0,0,0,2,1.21A7.86,7.86,0,0,0,516,182.53Z"/><path class="cls-10" d="M541.09,154.37v42.41H536V154.37Z"/><path class="cls-10" d="M573.05,192.69a9.37,9.37,0,0,1-2.28,2,13.56,13.56,0,0,1-2.83,1.4,17.35,17.35,0,0,1-3.13.82,19.28,19.28,0,0,1-3.19.28,14.65,14.65,0,0,1-5.57-1,12.28,12.28,0,0,1-4.41-3,13.72,13.72,0,0,1-2.89-4.88,19.89,19.89,0,0,1-1-6.68,16.79,16.79,0,0,1,.94-5.7,13.28,13.28,0,0,1,2.69-4.59,12.35,12.35,0,0,1,4.29-3.06,14.24,14.24,0,0,1,5.7-1.1,13.23,13.23,0,0,1,4.85.87,10.91,10.91,0,0,1,3.86,2.54,11.66,11.66,0,0,1,2.55,4.09,15.66,15.66,0,0,1,.92,5.54,3.38,3.38,0,0,1-.26,1.61,1.07,1.07,0,0,1-1,.4H552.78a17.14,17.14,0,0,0,.76,4.81,9.5,9.5,0,0,0,1.89,3.41,7.43,7.43,0,0,0,2.88,2,9.89,9.89,0,0,0,3.74.67,11,11,0,0,0,3.33-.44,15.5,15.5,0,0,0,2.4-1,16.67,16.67,0,0,0,1.68-1,2.25,2.25,0,0,1,1.17-.45,1.15,1.15,0,0,1,1,.49ZM568.9,179a10.29,10.29,0,0,0-.5-3.27,7.43,7.43,0,0,0-1.47-2.56,6.42,6.42,0,0,0-2.35-1.67,7.77,7.77,0,0,0-3.13-.59,7.85,7.85,0,0,0-5.83,2.14,10.08,10.08,0,0,0-2.67,6Z"/><path class="cls-10" d="M624.7,188.26a1.1,1.1,0,0,1,.81.37l2.21,2.39a17.55,17.55,0,0,1-6.14,4.58,21,21,0,0,1-8.74,1.64,20.36,20.36,0,0,1-8.06-1.54,17.55,17.55,0,0,1-6.19-4.32,19.47,19.47,0,0,1-4-6.66,24.9,24.9,0,0,1-1.41-8.55,24,24,0,0,1,1.47-8.55,19.57,19.57,0,0,1,4.13-6.68,18.58,18.58,0,0,1,6.38-4.34,21.36,21.36,0,0,1,8.21-1.54,20,20,0,0,1,7.77,1.41,19.57,19.57,0,0,1,5.93,3.83l-1.84,2.57a1.56,1.56,0,0,1-.45.47,1.24,1.24,0,0,1-.73.19,2.31,2.31,0,0,1-1.27-.56,19.51,19.51,0,0,0-2-1.26,14.56,14.56,0,0,0-7.48-1.81,15,15,0,0,0-5.85,1.11,12.86,12.86,0,0,0-4.56,3.21,14.77,14.77,0,0,0-3,5.12,20.48,20.48,0,0,0-1.07,6.83,19.9,19.9,0,0,0,1.11,6.88,15.2,15.2,0,0,0,3,5.11,12.72,12.72,0,0,0,4.52,3.18,14.33,14.33,0,0,0,5.62,1.1,23.84,23.84,0,0,0,3.33-.22,13,13,0,0,0,2.73-.68,11.1,11.1,0,0,0,2.34-1.16,16,16,0,0,0,2.14-1.69A1.48,1.48,0,0,1,624.7,188.26Z"/><path class="cls-10" d="M632.24,171.73a16.79,16.79,0,0,1,5.22-3.48,16,16,0,0,1,6.19-1.15,11.12,11.12,0,0,1,4.34.8,8.91,8.91,0,0,1,3.2,2.25,9.56,9.56,0,0,1,2,3.48,14.6,14.6,0,0,1,.66,4.5v18.65h-2.27a2.31,2.31,0,0,1-1.16-.24,1.65,1.65,0,0,1-.63-1l-.58-2.76a25.69,25.69,0,0,1-2.24,1.88,13.28,13.28,0,0,1-2.3,1.39,12.81,12.81,0,0,1-2.58.86,14.24,14.24,0,0,1-3,.3,10.45,10.45,0,0,1-3.2-.47,7.39,7.39,0,0,1-2.6-1.43,6.74,6.74,0,0,1-1.76-2.4,8.45,8.45,0,0,1-.64-3.44,6.39,6.39,0,0,1,1-3.33,8.29,8.29,0,0,1,3.08-2.83,20.12,20.12,0,0,1,5.55-2,42.52,42.52,0,0,1,8.41-.91v-2.27a7.78,7.78,0,0,0-1.47-5.14,5.28,5.28,0,0,0-4.29-1.75,9.1,9.1,0,0,0-3.18.48,12.77,12.77,0,0,0-2.22,1.06c-.62.4-1.16.75-1.61,1.07a2.3,2.3,0,0,1-1.34.47,1.49,1.49,0,0,1-.89-.27,2.41,2.41,0,0,1-.63-.68Zm16.56,11.92a42.68,42.68,0,0,0-6,.57,16.75,16.75,0,0,0-4.06,1.16,5.62,5.62,0,0,0-2.28,1.7,3.64,3.64,0,0,0-.7,2.19,4.76,4.76,0,0,0,.37,2,3.57,3.57,0,0,0,1,1.37,3.92,3.92,0,0,0,1.52.78,7.14,7.14,0,0,0,1.89.24,10.56,10.56,0,0,0,2.47-.27,9.44,9.44,0,0,0,2.12-.79,12.14,12.14,0,0,0,1.9-1.24,17.82,17.82,0,0,0,1.77-1.64Z"/><path class="cls-10" d="M666.91,154.37v42.41h-5.13V154.37Z"/><path class="cls-10" d="M698.87,192.69a9.56,9.56,0,0,1-2.28,2,13.56,13.56,0,0,1-2.83,1.4,17.35,17.35,0,0,1-3.13.82,19.28,19.28,0,0,1-3.19.28,14.65,14.65,0,0,1-5.57-1,12.28,12.28,0,0,1-4.41-3,13.72,13.72,0,0,1-2.89-4.88,19.89,19.89,0,0,1-1-6.68,16.79,16.79,0,0,1,.94-5.7,13.28,13.28,0,0,1,2.69-4.59,12.35,12.35,0,0,1,4.29-3.06,14.24,14.24,0,0,1,5.7-1.1A13.23,13.23,0,0,1,692,168a11,11,0,0,1,3.86,2.54,11.66,11.66,0,0,1,2.55,4.09,15.66,15.66,0,0,1,.92,5.54,3.38,3.38,0,0,1-.26,1.61,1.07,1.07,0,0,1-1,.4H678.6a17.14,17.14,0,0,0,.76,4.81,9.5,9.5,0,0,0,1.89,3.41,7.43,7.43,0,0,0,2.88,2,9.89,9.89,0,0,0,3.74.67,11,11,0,0,0,3.33-.44,15.5,15.5,0,0,0,2.4-1,16.67,16.67,0,0,0,1.68-1,2.22,2.22,0,0,1,1.17-.45,1.15,1.15,0,0,1,1,.49ZM694.72,179a10.29,10.29,0,0,0-.5-3.27,7.43,7.43,0,0,0-1.47-2.56,6.51,6.51,0,0,0-2.35-1.67,7.77,7.77,0,0,0-3.13-.59,7.85,7.85,0,0,0-5.83,2.14,10,10,0,0,0-2.67,6Z"/><path class="cls-10" d="M710.44,171.85a18.3,18.3,0,0,1,2-1.93,12.74,12.74,0,0,1,2.26-1.48,11.16,11.16,0,0,1,2.53-.95,12.15,12.15,0,0,1,2.9-.33,10.44,10.44,0,0,1,4.21.79,8.22,8.22,0,0,1,3.06,2.24,10,10,0,0,1,1.85,3.5,15.33,15.33,0,0,1,.64,4.52v18.57h-5.16V178.21a7.84,7.84,0,0,0-1.51-5.14,5.62,5.62,0,0,0-4.59-1.83,8.63,8.63,0,0,0-4.25,1.1,14.15,14.15,0,0,0-3.64,3v21.48h-5.15V167.62h3.08a1.26,1.26,0,0,1,1.35,1.06Z"/><path class="cls-10" d="M761.87,154.37v42.41h-3.06a1.3,1.3,0,0,1-1.38-1.06l-.46-3.54a16,16,0,0,1-4.26,3.62,10.77,10.77,0,0,1-5.53,1.39,10.6,10.6,0,0,1-4.55-1,9.48,9.48,0,0,1-3.48-2.83,13.61,13.61,0,0,1-2.22-4.67,23.92,23.92,0,0,1-.78-6.42,20,20,0,0,1,.87-6,14.64,14.64,0,0,1,2.47-4.82,11.56,11.56,0,0,1,4-3.22,11.85,11.85,0,0,1,5.29-1.16,10.59,10.59,0,0,1,4.59.91,11.2,11.2,0,0,1,3.41,2.51V154.37Zm-5.13,20.19a8.31,8.31,0,0,0-3.11-2.7,8.87,8.87,0,0,0-3.74-.76,7.35,7.35,0,0,0-6.25,2.91q-2.19,2.91-2.19,8.29a20.86,20.86,0,0,0,.49,4.88,9.52,9.52,0,0,0,1.44,3.34,5.73,5.73,0,0,0,2.33,1.92,7.82,7.82,0,0,0,3.14.6,8.3,8.3,0,0,0,4.42-1.15,12.47,12.47,0,0,0,3.47-3.26Z"/><path class="cls-10" d="M769.24,171.73a16.64,16.64,0,0,1,5.21-3.48,16,16,0,0,1,6.19-1.15,11.12,11.12,0,0,1,4.34.8,8.91,8.91,0,0,1,3.2,2.25,9.56,9.56,0,0,1,2,3.48,14.6,14.6,0,0,1,.66,4.5v18.65h-2.27a2.31,2.31,0,0,1-1.16-.24,1.65,1.65,0,0,1-.63-1l-.58-2.76a25.69,25.69,0,0,1-2.24,1.88,13.28,13.28,0,0,1-2.3,1.39,12.81,12.81,0,0,1-2.58.86,14.24,14.24,0,0,1-3,.3,10.34,10.34,0,0,1-3.19-.47,7.35,7.35,0,0,1-2.61-1.43,6.74,6.74,0,0,1-1.76-2.4,8.45,8.45,0,0,1-.64-3.44,6.39,6.39,0,0,1,1-3.33,8.29,8.29,0,0,1,3.08-2.83,20.12,20.12,0,0,1,5.55-2,42.52,42.52,0,0,1,8.41-.91v-2.27a7.78,7.78,0,0,0-1.47-5.14,5.28,5.28,0,0,0-4.29-1.75,9.14,9.14,0,0,0-3.18.48,12.77,12.77,0,0,0-2.22,1.06c-.62.4-1.16.75-1.61,1.07a2.3,2.3,0,0,1-1.34.47,1.49,1.49,0,0,1-.89-.27,2.41,2.41,0,0,1-.63-.68Zm16.55,11.92a42.68,42.68,0,0,0-6,.57,16.75,16.75,0,0,0-4.06,1.16,5.69,5.69,0,0,0-2.28,1.7,3.64,3.64,0,0,0-.7,2.19,4.76,4.76,0,0,0,.37,2,3.57,3.57,0,0,0,1,1.37,4,4,0,0,0,1.52.78,7.14,7.14,0,0,0,1.89.24,10.5,10.5,0,0,0,2.47-.27,9.44,9.44,0,0,0,2.12-.79,12.14,12.14,0,0,0,1.9-1.24,16.78,16.78,0,0,0,1.77-1.64Z"/><path class="cls-10" d="M803.47,173.46a13.19,13.19,0,0,1,3.4-4.68,7.41,7.41,0,0,1,4.92-1.68,7.94,7.94,0,0,1,1.77.2,4.77,4.77,0,0,1,1.51.63l-.37,3.83a.83.83,0,0,1-.87.72,6.31,6.31,0,0,1-1.18-.17,7.75,7.75,0,0,0-1.75-.17,7,7,0,0,0-2.46.4,5.83,5.83,0,0,0-1.93,1.19,8.54,8.54,0,0,0-1.53,2,16.58,16.58,0,0,0-1.22,2.67v18.42H798.6V167.62h2.94a1.62,1.62,0,0,1,1.15.31,2,2,0,0,1,.43,1.1Z"/></g></g></svg>