<svg xmlns="http://www.w3.org/2000/svg" xmlns:xlink="http://www.w3.org/1999/xlink" viewBox="0 0 392.84 159.89"><defs><style>.cls-1{fill:none;}.cls-2{fill:#2485fb;}.cls-3{fill:#656d78;}.cls-4{fill:#fff;}.cls-5{fill:#434a54;}.cls-6{clip-path:url(#clip-path);}.cls-7{fill:#f8ba7f;}.cls-8{fill:#1d1d1b;}.cls-9{fill:#01487d;}.cls-10{fill:#e42321;}.cls-11{fill:#db8a3b;}.cls-12{fill:#2d1d10;}.cls-13{fill:#010101;}.cls-14{fill:#895214;}.cls-15{fill:#f8ba80;}.cls-16{fill:#2d1f13;}.cls-17{fill:#030303;}.cls-18{fill:#e6e5e5;}.cls-19{fill:#010202;}.cls-20{fill:#fafafa;}.cls-21{fill:#020202;}.cls-22{fill:#d1b028;}.cls-23{fill:#e20a13;}.cls-24{fill:#f29706;}.cls-25{fill:#f5a711;}</style><clipPath id="clip-path"><path class="cls-1" d="M90.74,31.16A44.54,44.54,0,1,1,52.14,8.85a44.33,44.33,0,0,1,38.6,22.31"/></clipPath></defs><g id="Capa_2" data-name="Capa 2"><g id="Capa_1-2" data-name="Capa 1"><path class="cls-2" d="M120.36,41.94h14v5.35c2.55-3.53,5.95-6.32,12.52-6.32,4.5,0,6.69.73,8.51,2.07l-5,13.12a11.63,11.63,0,0,0-7-2.06c-4.86,0-7.41,2.67-9,5.83V96.65h-14Z"/><path class="cls-2" d="M160.59,41.94h14V96.65h-14Z"/><path class="cls-2" d="M214.69,96.89H204.36L179.19,41.94h16.66L205.94,65.4a75,75,0,0,1,4.13,12.4,90.46,90.46,0,0,1,4-12.64l9.48-23.22h14.71Z"/><path class="cls-2" d="M285.68,91.18c-5.47,4.62-13.25,6.8-20.91,6.8-17.63,0-29.42-11.42-29.42-28.69,0-15.92,10.94-28.69,28.93-28.69,14.11,0,25.9,10.09,25.9,25.41a25.13,25.13,0,0,1-.85,7.54H249.82c1.21,8.27,7.78,12.76,16.41,12.76a25.31,25.31,0,0,0,15.44-5Zm-36.35-27H276.2c.12-6.69-4.5-11.92-12.52-11.92C255.29,52.27,250.79,57,249.33,64.19Z"/><path class="cls-2" d="M296.62,41.94h14v5.35c2.55-3.53,5.95-6.32,12.52-6.32,4.5,0,6.69.73,8.51,2.07l-5,13.12a11.63,11.63,0,0,0-7.05-2.06c-4.86,0-7.41,2.67-9,5.83V96.65h-14Z"/><path class="cls-2" d="M361.17,40.6C379.28,40.6,391,52.88,391,69.29S379.28,98,361.17,98s-29.79-12.27-29.79-28.69S343.05,40.6,361.17,40.6Zm0,44.38c8.63,0,14.95-6.2,14.95-15.69,0-9.24-6.44-15.56-14.95-15.56-8.27,0-14.83,6.08-14.83,15.56C346.34,78.41,352.66,85,361.17,85Z"/><path class="cls-3" d="M141,2.21h6.71v2.7a6.65,6.65,0,0,1,6-3.19c2.16,0,3.21.37,4.08,1l-2.39,6.62a5.36,5.36,0,0,0-3.38-1,4.52,4.52,0,0,0-4.32,2.94v18.5H141Z"/><path class="cls-3" d="M160.84,4.17a18.8,18.8,0,0,1,9.28-2.64c7.76,0,10.51,4.17,10.51,11.46V29.78h-5.84V26.6c-1.4,2.08-4.2,3.55-7.76,3.55-4.78,0-8.23-3.12-8.23-8.45,0-6.07,4.26-8.95,9.57-8.95a10.5,10.5,0,0,1,5.95,1.78c.18-4.6-1-7.11-4.9-7.11a14.48,14.48,0,0,0-6.88,1.9ZM174.32,21.7V18.88a7.17,7.17,0,0,0-4.61-1.35c-2.21,0-4.2,1.1-4.2,3.43,0,2.08,1.64,3.25,3.74,3.25A5.64,5.64,0,0,0,174.32,21.7Z"/><path class="cls-3" d="M186.34,2.21h6.71V5a10.32,10.32,0,0,1,7.53-3.25c6.42,0,10.8,3.25,10.8,11.89V29.78h-6.72V14.83c0-4.41-2.15-6.49-5.89-6.49A7.73,7.73,0,0,0,193.05,11V29.78h-6.71Z"/><path class="cls-3" d="M216.16,9.93c0-5.39,4.2-8.4,9.62-8.4,5.08,0,8.35,1.9,10,3.5l-2.51,5a12,12,0,0,0-7.12-2.63c-2,0-3.26,1.16-3.26,2.39,0,4.59,14.18,2.08,14.18,11.82,0,5.46-4.2,8.83-10.62,8.83-4.85,0-9.75-2.76-11-4.72l3.26-4.6c1.58,1.78,5.55,3.44,8.17,3.44,1.93,0,3.45-.86,3.45-2.58C230.34,17.53,216.16,20,216.16,9.93Z"/><path class="cls-3" d="M285.82,1.53c8.7,0,14.3,6.19,14.3,14.47s-5.6,14.46-14.3,14.46S271.53,24.27,271.53,16,277.13,1.53,285.82,1.53Zm0,22.37C290,23.9,293,20.78,293,16s-3.09-7.85-7.18-7.85S278.7,11.22,278.7,16C278.7,20.59,281.74,23.9,285.82,23.9Z"/><path class="cls-3" d="M304.78,2.21h6.71v2.7a6.66,6.66,0,0,1,6-3.19c2.16,0,3.21.37,4.09,1L319.2,9.38a5.4,5.4,0,0,0-3.39-1,4.53,4.53,0,0,0-4.32,2.94v18.5h-6.71Z"/><path class="cls-3" d="M365.58,27a15.19,15.19,0,0,1-10,3.43c-8.47,0-14.13-5.76-14.13-14.46,0-8,5.26-14.47,13.89-14.47,6.77,0,12.43,5.09,12.43,12.81a13.33,13.33,0,0,1-.41,3.8h-19c.58,4.17,3.73,6.44,7.88,6.44a11.78,11.78,0,0,0,7.41-2.52ZM348.13,13.42H361a5.63,5.63,0,0,0-6-6C351,7.42,348.83,9.81,348.13,13.42Z"/><path class="cls-3" d="M371.12,9.93c0-5.39,4.2-8.4,9.63-8.4,5.08,0,8.34,1.9,10,3.5l-2.51,5a12.08,12.08,0,0,0-7.12-2.63c-2,0-3.27,1.16-3.27,2.39,0,4.59,14.18,2.08,14.18,11.82,0,5.46-4.2,8.83-10.62,8.83-4.84,0-9.74-2.76-11-4.72l3.27-4.6c1.57,1.78,5.54,3.44,8.17,3.44,1.92,0,3.44-.86,3.44-2.58C385.3,17.53,371.12,20,371.12,9.93Z"/><path class="cls-3" d="M248.48,34.36V29.11a12.36,12.36,0,0,0,6.13,1.35c8.4,0,13.89-6.5,13.89-14.89,0-8.15-4.67-14-11.91-14a11.24,11.24,0,0,0-8.11,3.31V2.21h-6.71V34.36Zm0-23.2a7.94,7.94,0,0,1,6-3c4.44,0,6.89,3.19,6.89,7.6,0,4.6-2.69,8.15-7.36,8.15a8.87,8.87,0,0,1-5.54-1.59Z"/><path class="cls-3" d="M130.45,23.84c-2.22,0-3.15-2-3.15-5v-10h8.46V2.21H127.3V0h-6.71V19.31c0,7,2.21,11.09,8.17,11.09a12.26,12.26,0,0,0,7.76-2.7l-2-5.45A6.4,6.4,0,0,1,130.45,23.84Z"/><path class="cls-3" d="M333.55,23.84c-2.22,0-3.15-2-3.15-5v-10h8.46V2.21H330.4V0h-6.71V19.31c0,7,2.21,11.09,8.17,11.09a12.26,12.26,0,0,0,7.76-2.7l-2.05-5.45A6.35,6.35,0,0,1,333.55,23.84Z"/><circle class="cls-4" cx="52.14" cy="53.39" r="49.15"/><path class="cls-5" d="M52.14,105.54a52.15,52.15,0,1,1,52.14-52.15A52.2,52.2,0,0,1,52.14,105.54Zm0-98.31A46.17,46.17,0,1,0,98.31,53.39,46.22,46.22,0,0,0,52.14,7.23Z"/><g class="cls-6"><ellipse class="cls-7" cx="50.8" cy="76.16" rx="12.97" ry="9.09"/><path class="cls-8" d="M33.05,126.08s-.79,2.48-.55,3.39a7.61,7.61,0,0,0,2.78.52h1.9s10.09.12,16.78-.39a31.43,31.43,0,0,1,4.53-.26,4.35,4.35,0,0,0,2.13-.65,5.52,5.52,0,0,0,.9-.65,49.72,49.72,0,0,0,16.57.65c-1-3.61-.65-5-5.69-5.66s-16.6,2.37-16.6,2.37l-.53,3.29s-2.47-4-5.24-4.92c-6.43-4-10.43-2.44-10.43-2.44Z"/><path class="cls-9" d="M31,92.58s.2,5.83,2.37,10.11c.61,4,2,3.93,1.73,6.57s-1.32,13.29-1.32,13.29-1.14.75-.71,3.53c2.74-1.63,11.42-5.15,17-2.31.48-2.57.68-3.39,0-3.45.14-1.56,1.56-9.5,2.78-10.65,1.9,7.93,3,13.22,3,13.22s-1.5,1.7,0,2.51c2.84-.68,12-2.91,16.6-2.37.08-2.38,0-4.41,0-4.41h-2s-1.61-9-1.54-10.85.47-5.22.47-5.22,3.19-4.48,3.36-6.17a13.22,13.22,0,0,0-.05-3.07Z"/><path class="cls-8" d="M32.88,126.45l-.05-.34c-.38-2.45.43-3.42.71-3.67.1-1.07,1-10.72,1.32-13.2a4.22,4.22,0,0,0-.56-2.77,11.54,11.54,0,0,1-1.17-3.71C31,98.49,30.76,92.65,30.76,92.59v-.24H31l41.8.74,0,.19a13.31,13.31,0,0,1,.05,3.12c-.16,1.66-3,5.72-3.36,6.23-.05.46-.41,3.48-.47,5.15s1.28,9.31,1.51,10.61h2.07v.22s.07,2.07,0,4.42v.25l-.24,0c-4.43-.52-13,1.53-16.24,2.3l-.38.09-.07,0a1.37,1.37,0,0,1-.76-1,2.56,2.56,0,0,1,.62-1.8c-.16-.77-1.18-5.65-2.84-12.63a19.8,19.8,0,0,0-1.47,4.69c-.49,2.16-.86,4.35-1,5.25a.63.63,0,0,1,.26.2c.29.39.15,1.14-.19,3q0,.24-.09.51l-.06.3-.27-.13c-1.63-.84-4.58-1.6-9.39-.51a28,28,0,0,0-7.37,2.8ZM31.22,92.81a27.89,27.89,0,0,0,2.33,9.77l0,0v0a10.87,10.87,0,0,0,1.13,3.62,4.66,4.66,0,0,1,.6,3C35,111.9,34,122.47,34,122.57v.11l-.09.06c-.33.23-.86,1.14-.65,3a29.53,29.53,0,0,1,7.2-2.68c2.65-.61,6.41-1,9.43.41l0-.23c.26-1.43.44-2.37.26-2.6,0,0,0-.06-.16-.07l-.22,0,0-.22c.12-1.39,1.51-9.54,2.85-10.8l.28-.27.09.39c1.88,7.84,3,13.17,3,13.23l0,.11L56,123a2.3,2.3,0,0,0-.6,1.51.92.92,0,0,0,.46.61l.21,0c3.19-.76,11.57-2.76,16.14-2.33,0-1.8,0-3.37,0-3.93h-2l0-.19c-.06-.37-1.61-9.06-1.54-10.9s.47-5.2.47-5.24v-.06l0,0s3.15-4.45,3.31-6.06a13.52,13.52,0,0,0,0-2.82Z"/><path class="cls-10" d="M31.18,92.58S25.71,82.18,27.23,78s2.48-6.51,8.31-8.29c1,.69,4.42,3.16,12.47,5.15,2.19,2.1,3.24,2.39,3.84,2.59l2.36-.33-.25,0c.25,0,.83-2.15,5-1.71a11.3,11.3,0,0,0,3.23-2.2,15.86,15.86,0,0,0,3.89-1.5,10.8,10.8,0,0,1,1,1.21s8.25-.1,10,4.78,1.8,9.12-4.25,10.2a25.63,25.63,0,0,1,0,5.41l-1,1.91A93.19,93.19,0,0,1,48,97.46C35.42,96.87,31.18,92.58,31.18,92.58Z"/><path class="cls-8" d="M51.41,97.77c-1.14,0-2.29,0-3.46-.08A39,39,0,0,1,34.78,95,12.47,12.47,0,0,1,31,92.74l0,0v0a56.17,56.17,0,0,1-2.56-5.76c-1.58-4.2-2.05-7.24-1.41-9a15.16,15.16,0,0,1,2.58-5.13c1.25-1.43,3.06-2.44,5.88-3.3l.11,0,.09.07c3.53,2.56,8.69,4.19,12.39,5.11l.06,0,.05,0c2.09,2,3.09,2.32,3.69,2.51h0l2-.29.08-.1c.4-.54,1.46-2,5-1.62a10.88,10.88,0,0,0,3.1-2.1l.05-.06.07,0A16.26,16.26,0,0,0,66,71.54l.17-.14.15.16c.59.65.86,1,1,1.13a19.56,19.56,0,0,1,4.28.57c3,.79,5,2.3,5.77,4.37,1.24,3.54,1.35,6,.33,7.75-.81,1.38-2.3,2.27-4.55,2.7A26.25,26.25,0,0,1,73,93.35v0l-1,2-.1,0A95.57,95.57,0,0,1,51.41,97.77Zm-20-5.33A13.22,13.22,0,0,0,35,94.61a38.5,38.5,0,0,0,13,2.62A93.76,93.76,0,0,0,71.66,95l.91-1.78a26.81,26.81,0,0,0,.05-5.33l0-.2.2,0c2.22-.39,3.67-1.22,4.44-2.52.94-1.62.83-4-.37-7.37-.47-1.34-1.79-3.13-5.45-4.08a18.51,18.51,0,0,0-4.28-.55H67L66.94,73a12,12,0,0,0-.86-1,17.6,17.6,0,0,1-3.73,1.39,13.05,13.05,0,0,1-3.26,2.2l-.06,0H59c-3.31-.34-4.27.94-4.63,1.43l-.11.13,0,.11h0l-.24,0h-.08l-2,.28h-.05l-.11,0C51.09,77.4,50,77.06,47.9,75c-3.71-.92-8.84-2.56-12.4-5.11C30,71.64,29,73.78,27.44,78,26,82,31,91.8,31.36,92.44Z"/><path class="cls-8" d="M47.11,80.78l-.34-.33C44.23,77.86,35.24,72,35.15,71.9l.25-.38c.36.24,8.46,5.55,11.37,8.29a9.4,9.4,0,0,1,1.93-4.35l.34.3a9.2,9.2,0,0,0-1.88,4.55Z"/><path class="cls-8" d="M64.88,75.86l-.31-.32a6.11,6.11,0,0,0,1.61-2.36,1.71,1.71,0,0,0-.24-1.32l.34-.3a2.11,2.11,0,0,1,.35,1.69A6.54,6.54,0,0,1,64.88,75.86Z"/><path class="cls-8" d="M58,83.87c-.51-4.43-.2-7.25.88-8.13a1.1,1.1,0,0,1,1-.26l.08,0h0a17.42,17.42,0,0,0,3.77,0,67.15,67.15,0,0,1,10.06.59l-.06.45a66.67,66.67,0,0,0-10-.58c-3,.19-3.8.09-4,0a.69.69,0,0,0-.55.19c-.54.46-1.34,2.07-.7,7.72Z"/><path class="cls-8" d="M70.73,76.07l-.36-.28a2.3,2.3,0,0,1,1.3-.6,7.18,7.18,0,0,1,.9-.15l.05.45A3.91,3.91,0,0,0,70.73,76.07Z"/><path class="cls-8" d="M63,93c-.09-1.44-.53-4.59-.53-4.62l.45-.07s.44,3.2.54,4.66Z"/><ellipse class="cls-8" cx="60.5" cy="91.17" rx="1.02" ry="1.17"/><path class="cls-8" d="M35.68,93.59l-.06,0a14.94,14.94,0,0,1-5.7-5.19,28.23,28.23,0,0,1-2.26-3.68l.4-.21a29.77,29.77,0,0,0,2.23,3.63c1.25,1.74,3.21,4,5.46,5a165.1,165.1,0,0,0,24.84-5.5l.14.44a165.55,165.55,0,0,1-25,5.52Z"/><path class="cls-8" d="M56.77,89.12,56.34,89a11,11,0,0,0,.38-2.3l.45,0A11.15,11.15,0,0,1,56.77,89.12Z"/><path class="cls-8" d="M53.34,81.16A48.12,48.12,0,0,0,43,80.81l-.31,0,.06-.31a1.41,1.41,0,0,0,.06-.59s-.06-.07-.19-.13a3,3,0,0,1-1.46-1.75c-1-2.28-5.88-3-5.93-3l.07-.45c.21,0,5.16.76,6.27,3.27.52,1.16,1,1.38,1.25,1.53s.51.37.43.93a49.69,49.69,0,0,1,10.15.38Z"/><path class="cls-8" d="M39.41,76.35a6.39,6.39,0,0,0-2.33-2l.2-.41-.1.21.1-.2a6.61,6.61,0,0,1,2.51,2.11Z"/><path class="cls-8" d="M36.62,83.21a.39.39,0,0,1-.3-.14.31.31,0,0,1-.06-.26c0-.16.2-.39,1.5-1,.66-.31,1.32-.57,1.32-.57l.17.42c-.44.17-.84.35-1.18.51a1.22,1.22,0,0,1,.33,0l0,.45a2.34,2.34,0,0,0-1.09.35A1.59,1.59,0,0,1,36.62,83.21Z"/><path class="cls-8" d="M36.42,85.91l-.33-.32c.46-.48,4.53-4.7,6-4.7h.66l-.52.4a15.1,15.1,0,0,0-1.44,1.3A7.8,7.8,0,0,1,42,82l.15.43s-1.93.69-2.34,1.74l-.33.86-.11-.91c-.06-.52.53-1.31,1.28-2.06a23.5,23.5,0,0,0-1.86,1.54C37.53,84.74,36.43,85.9,36.42,85.91Z"/><path class="cls-8" d="M39.37,86.32a.44.44,0,0,1-.33-.13c-.31-.33,0-1.09.13-1.41l.41.18a1.8,1.8,0,0,0-.21.91l.15,0a3.09,3.09,0,0,0,1.13-1.33,12,12,0,0,0,.56-1.15l.42.17a12.56,12.56,0,0,1-.58,1.2,3.42,3.42,0,0,1-1.37,1.54A1,1,0,0,1,39.37,86.32Z"/><path class="cls-8" d="M72.82,88.12a47.9,47.9,0,0,1-14.67-4.07,13.15,13.15,0,0,0-2.23-.85c-1.24-.38-2.14-.65-2.34-2-.29-2-.19-3,.43-4.18l.4.21c-.56,1-.65,2-.38,3.9.16,1.12.82,1.32,2,1.68a15.34,15.34,0,0,1,2.31.88c6.36,3.21,14.42,4,14.5,4Z"/><path class="cls-7" d="M47.67,80.29A9.06,9.06,0,0,1,54,77.12a24.11,24.11,0,0,0-.15,4A27.57,27.57,0,0,0,47.67,80.29Z"/><path class="cls-8" d="M54,81.41l-.29-.07a27.63,27.63,0,0,0-6-.83h-.61l.3-.38A9.25,9.25,0,0,1,54,76.89h.27l0,.27a24,24,0,0,0-.16,4Zm-5.86-1.35a29.31,29.31,0,0,1,5.39.76,24.53,24.53,0,0,1,.12-3.47A8.82,8.82,0,0,0,48.18,80.06Z"/><path class="cls-8" d="M31.44,96.52l1.22.42V93.67s1.54,1.55,2.62,1.63a20.7,20.7,0,0,1,0,2.84s10.06,2,11.83,1.94L46.84,98l2-.21s.41,2,1.22,2.28c1,.23,10.65.18,21-2.54a9.55,9.55,0,0,0,.77-2.32S51.65,97.69,46.5,97.37s-15.32-4.79-15.32-4.79Z"/><path class="cls-9" d="M52.81,109.67s2.31-.68,4.13-1.36"/><path class="cls-8" d="M52.88,109.89l-.13-.44s2.32-.68,4.12-1.35l.15.43C55.21,109.2,52.9,109.88,52.88,109.89Z"/><path class="cls-11" d="M60.66,71.71l-.1.08Z"/><path class="cls-12" d="M52.34,31.27c-4.43-.17-16,.74-20,5.25-3.67,4.18-5.14,13-4.81,15.67,0,0,5.21-7.93,7.16-11.12,1.76,1.23,11.22,3,17.52,3.17"/><path class="cls-13" d="M27.93,48.88c.07-.52.21-1.45.46-2.65A31.82,31.82,0,0,1,29.62,42a24.2,24.2,0,0,1,1.05-2.46c0-.1.11-.2.16-.31l.17-.31.18-.31c.06-.1.11-.2.18-.3l.19-.31c.06-.1.13-.19.2-.29a6.36,6.36,0,0,1,.43-.59,3.11,3.11,0,0,1,.23-.28l.12-.15.12-.13.25-.26.27-.25.14-.12.14-.12.29-.23.16-.11.15-.11.31-.21A16.36,16.36,0,0,1,37,33.76a27.33,27.33,0,0,1,2.82-.93c1-.25,1.88-.46,2.78-.63,1.81-.34,3.49-.55,4.93-.68.72-.07,1.38-.11,2-.15L51,31.31l1,0a1.3,1.3,0,0,0,.34,0l-.34,0c-.22,0-.55,0-1,0s-.93,0-1.52,0-1.24.05-2,.1a48.26,48.26,0,0,0-5,.61c-.91.16-1.85.36-2.81.61a26.28,26.28,0,0,0-2.86.91,16.07,16.07,0,0,0-2.76,1.36c-.11.06-.21.14-.32.21l-.16.11-.16.11-.3.24-.15.12-.14.13-.29.26-.27.28-.13.13-.12.15-.24.29c-.15.2-.31.4-.45.61l-.21.3-.19.31-.19.32-.19.31-.17.32-.16.31a24,24,0,0,0-1.09,2.5A31.23,31.23,0,0,0,28,46.14c-.27,1.21-.4,2.15-.47,2.69-.05.31-.1.76-.14,1.33,0,.29,0,.61,0,1a2.43,2.43,0,0,0,0,.27v.24a.62.62,0,0,0,0,.13l0,.52.05.54c.42-.63.87-1.33,1.35-2.06L29.93,49c.8-1.23,1.67-2.58,2.57-4l1.36-2.16.69-1.1.16-.27.09-.14s0,0,0,0h0l.07,0,.15.08.16.07a17.17,17.17,0,0,0,2.49.8c.83.22,1.66.4,2.47.57a74.61,74.61,0,0,0,8.49,1.2c1.1.09,2,.13,2.62.15H52a.67.67,0,0,0,.25,0,.79.79,0,0,0-.25,0l-.71-.05c-.62,0-1.51-.11-2.6-.23a85.39,85.39,0,0,1-8.44-1.32c-.81-.18-1.64-.37-2.46-.59a16.11,16.11,0,0,1-2.43-.81l-.14-.06-.14-.07L35,41h0l0,0-.06,0-.13-.08-.06,0,0,0h0v0l-.43.69-.69,1.1-1.38,2.14c-.91,1.4-1.78,2.75-2.59,4l-1.82,2.78h0v-.41c0-.34,0-.64.05-.92C27.84,49.64,27.89,49.19,27.93,48.88Z"/><path class="cls-12" d="M52.34,31.27c4.43-.11,15.68.93,19.58,5.48,3.62,4.23,5,13,4.61,15.74,0,0-5.11-8-7-11.21-1.77,1.21-10.94,2.89-17.25,3"/><path class="cls-13" d="M76.65,49.12c-.06-.53-.18-1.46-.43-2.67A33.25,33.25,0,0,0,75,42.14a24.48,24.48,0,0,0-1-2.49c-.1-.21-.21-.42-.32-.63l-.18-.32-.18-.31c-.13-.21-.25-.42-.39-.62l-.21-.31-.22-.3c-.07-.1-.15-.19-.23-.29l-.12-.15L72,36.58a6.88,6.88,0,0,0-.54-.54,3.45,3.45,0,0,0-.28-.26l-.3-.24-.15-.12-.15-.11-.31-.22a15.14,15.14,0,0,0-2.7-1.42,25.42,25.42,0,0,0-2.82-1c-.94-.26-1.87-.47-2.77-.65a45.93,45.93,0,0,0-4.92-.68c-.71-.06-1.37-.1-1.95-.12s-1.08,0-1.49,0-.74,0-1,0l-.34,0a1.55,1.55,0,0,0,.34,0l1,0c.42,0,.92,0,1.49.08s1.23.09,1.94.17a49.33,49.33,0,0,1,4.88.75c.89.18,1.81.4,2.74.68a27,27,0,0,1,2.78,1,15,15,0,0,1,2.62,1.41l.3.21.15.11.14.12.29.23.27.25a6.14,6.14,0,0,1,.5.52l.12.14.11.14c.08.09.15.19.22.28l.22.3c.07.09.13.2.2.29l.38.61.17.31c.06.1.12.2.17.3s.22.42.31.62a23.67,23.67,0,0,1,1,2.46,31.64,31.64,0,0,1,1.16,4.25c.24,1.2.36,2.12.42,2.64,0,.31.09.75.12,1.31,0,.28,0,.59,0,.93a2.09,2.09,0,0,1,0,.25v.17h0l-1.78-2.78-2.52-4-1.33-2.14-.67-1.09-.38-.61-.07-.13,0-.06s0,0,0,0h0l0,0-.24.15-.09.05-.06,0-.14.07a12,12,0,0,1-1.18.45c-.41.13-.81.24-1.22.35-.82.22-1.64.4-2.44.57-1.6.33-3.15.59-4.57.79s-2.7.35-3.79.45-2,.15-2.58.19l-.7,0a.87.87,0,0,0-.25,0,.72.72,0,0,0,.25,0h.71c.61,0,1.5,0,2.59-.11s2.38-.2,3.8-.38,3-.42,4.6-.74c.81-.16,1.64-.34,2.46-.55.41-.1.83-.22,1.24-.35a10.16,10.16,0,0,0,1.23-.45l.15-.07.13-.07,0,0h0l.3.49.66,1.1,1.33,2.15c.87,1.4,1.72,2.75,2.5,4L75.36,51l1.32,2.07.06-.54.05-.53a.62.62,0,0,1,0-.13v-.24a2.25,2.25,0,0,0,0-.26,9.43,9.43,0,0,0,0-.95C76.74,49.89,76.69,49.43,76.65,49.12Z"/><path class="cls-14" d="M36,61.47s10.9-14.53-.67-22.8c-5.23-3.74-5.84-13.19-11.15-13.22-1.67,0-8.13,3-8.21,15.8s7.1,17,9.41,18.38S36,61.47,36,61.47Z"/><path class="cls-13" d="M36,61.47a2.1,2.1,0,0,1-.6,0c-.4,0-1-.05-1.87-.12s-1.92-.18-3.25-.36c-.67-.1-1.39-.21-2.18-.37-.4-.09-.81-.18-1.23-.29a8.69,8.69,0,0,1-1.29-.46l-.17-.08-.16-.09L25,59.54l-.64-.39c-.42-.27-.86-.57-1.29-.9a15.77,15.77,0,0,1-1.28-1.09c-.42-.4-.84-.83-1.24-1.29a16.91,16.91,0,0,1-1.17-1.52l-.27-.41c-.09-.14-.18-.28-.26-.43l-.26-.43-.25-.46-.12-.23-.11-.24c-.08-.15-.16-.31-.23-.47l-.22-.5c0-.08-.07-.16-.1-.25l-.1-.25c-.07-.17-.14-.35-.2-.52L17,49.63,17,49.36l-.08-.27-.16-.55a26.29,26.29,0,0,1-.79-4.8c0-.21,0-.43,0-.64l0-.65V41.13l0-.68v-.34c0-.11,0-.22,0-.34l0-.69a2,2,0,0,1,0-.34l0-.35c0-.47.1-.94.15-1.41l.12-.72.06-.36.07-.36a21.16,21.16,0,0,1,.78-2.9l.27-.73.31-.72.17-.35.09-.18.09-.18.19-.35a1,1,0,0,1,.1-.17l.1-.18.21-.34.22-.34.12-.17.12-.16.25-.33a10.81,10.81,0,0,1,1.12-1.23,7.74,7.74,0,0,1,2.79-1.75,3.22,3.22,0,0,1,.82-.16h.41l.2,0,.2,0a4.24,4.24,0,0,1,1.48.58,4.91,4.91,0,0,1,.63.47,5.62,5.62,0,0,1,.55.54,8.53,8.53,0,0,1,.92,1.18A25.22,25.22,0,0,1,30,30.62c.43.83.84,1.65,1.25,2.43s.84,1.54,1.3,2.24a13.32,13.32,0,0,0,1.48,2,8.19,8.19,0,0,0,.85.82,4.94,4.94,0,0,0,.44.36l.47.35a13.35,13.35,0,0,1,3.06,3.14,11.3,11.3,0,0,1,1.63,3.57,11.51,11.51,0,0,1,.32,1.78,13.73,13.73,0,0,1,.07,1.68,13.15,13.15,0,0,1-.12,1.57c-.06.51-.14,1-.24,1.45A21.72,21.72,0,0,1,39,56.54a25,25,0,0,1-1.51,2.91c-.44.73-.79,1.24-1,1.57s-.37.46-.39.45a2.21,2.21,0,0,1,.29-.52c.21-.34.53-.86.95-1.6s.92-1.69,1.45-2.91a23.3,23.3,0,0,0,1.47-4.54c.09-.45.17-.93.23-1.42s.09-1,.11-1.55a13.09,13.09,0,0,0-.07-1.64,13.44,13.44,0,0,0-.32-1.73,10.93,10.93,0,0,0-1.58-3.48,13,13,0,0,0-3-3.07l-.46-.34-.47-.37a11.5,11.5,0,0,1-.86-.85,13.75,13.75,0,0,1-1.52-2c-.47-.72-.89-1.48-1.31-2.27s-.82-1.6-1.25-2.43a25.45,25.45,0,0,0-1.41-2.46,9.81,9.81,0,0,0-.89-1.15,6.38,6.38,0,0,0-.53-.51,4.31,4.31,0,0,0-.59-.44,3.89,3.89,0,0,0-1.37-.54l-.19,0h-.19l-.18,0h-.19a2.86,2.86,0,0,0-.74.15,6.77,6.77,0,0,0-1.41.68,8.59,8.59,0,0,0-1.27,1,11.14,11.14,0,0,0-1.09,1.19l-.24.32-.12.16-.11.17-.22.33-.2.34-.1.17a1,1,0,0,0-.1.17l-.18.34a1.51,1.51,0,0,0-.09.18l-.09.17-.17.35-.3.71-.27.71a20.16,20.16,0,0,0-.76,2.86L16.6,36l-.05.35c0,.24-.08.47-.11.71-.06.47-.13.93-.16,1.39l0,.35,0,.34,0,.69c0,.11,0,.22,0,.33v1a1.82,1.82,0,0,0,0,.33v1l0,.64c0,.22,0,.43,0,.64A25.64,25.64,0,0,0,17,48.46l.16.54.08.27.09.26.17.53c.06.17.13.34.2.5l.09.26a2.56,2.56,0,0,0,.11.24l.21.49c.07.16.15.31.22.47l.12.23.12.23.24.44.25.44c.08.14.17.28.26.41l.27.41c.36.53.75,1,1.14,1.49a17.59,17.59,0,0,0,5,4,8.88,8.88,0,0,0,1.25.44c.41.12.82.21,1.21.29.77.17,1.5.29,2.15.39,1.33.2,2.4.32,3.24.41A20.43,20.43,0,0,1,36,61.47Z"/><path class="cls-14" d="M68.25,61.66S57.53,47,69.2,38.87c5.26-3.67,6-13.11,11.3-13.08,1.68,0,8.1,3.11,8,15.9s-7.3,17-9.63,18.26S68.25,61.66,68.25,61.66Z"/><path class="cls-13" d="M68.25,61.66a19.66,19.66,0,0,1,2.45-.27c.84-.09,1.92-.2,3.24-.38.66-.09,1.39-.21,2.17-.36.39-.08.79-.17,1.21-.28a7.71,7.71,0,0,0,1.25-.43,17.27,17.27,0,0,0,5-3.9,16,16,0,0,0,1.16-1.47l.27-.4c.09-.14.18-.27.26-.42l.26-.42.25-.45.12-.22.12-.23.23-.47.22-.49.1-.24.1-.25c.07-.17.14-.34.2-.51l.19-.52.09-.26.08-.27.17-.54a26.32,26.32,0,0,0,.84-4.73c0-.21,0-.42,0-.63l0-.65,0-.65v-.33c0-.11,0-.22,0-.33v-1c0-.11,0-.23,0-.34l0-.68c0-.12,0-.23,0-.35l0-.34c0-.47-.09-.93-.14-1.4,0-.24-.07-.47-.11-.71l0-.35L87.9,36a18.88,18.88,0,0,0-.73-2.87c-.08-.24-.17-.48-.26-.72s-.2-.47-.29-.71l-.17-.35-.08-.17L86.28,31l-.18-.35L86,30.51l-.1-.17-.2-.34-.22-.33-.11-.17-.11-.16L85,29A10.27,10.27,0,0,0,84,27.81a8.51,8.51,0,0,0-1.25-1,5.79,5.79,0,0,0-1.41-.7,3.19,3.19,0,0,0-.73-.16h-.37L80,26l-.19,0a4.19,4.19,0,0,0-1.38.52,5.13,5.13,0,0,0-.6.44,6.17,6.17,0,0,0-.53.5,9.8,9.8,0,0,0-.9,1.14A23.59,23.59,0,0,0,75,31c-.44.82-.86,1.64-1.28,2.42S72.82,35,72.34,35.7a14.42,14.42,0,0,1-1.54,2,10,10,0,0,1-.88.84l-.46.37-.47.34a12.86,12.86,0,0,0-3,3,11.26,11.26,0,0,0-2,5.18,11.57,11.57,0,0,0-.09,1.65A15.4,15.4,0,0,0,64,50.62c.06.49.13,1,.22,1.42a22.91,22.91,0,0,0,1.41,4.56A29.28,29.28,0,0,0,67,59.53c.4.74.72,1.27.93,1.61a1.89,1.89,0,0,1,.28.52s-.15-.12-.38-.45a18.2,18.2,0,0,1-1-1.58,31.18,31.18,0,0,1-1.48-2.93,23.65,23.65,0,0,1-1.45-4.6c-.09-.46-.17-1-.22-1.45s-.09-1-.1-1.57a14,14,0,0,1,.09-1.69A12.68,12.68,0,0,1,64,45.63a11.28,11.28,0,0,1,1.67-3.56A13.45,13.45,0,0,1,68.81,39l.46-.34c.16-.12.31-.23.46-.36a10.76,10.76,0,0,0,.85-.81,14.64,14.64,0,0,0,1.51-1.93c.46-.7.9-1.45,1.32-2.23s.84-1.59,1.28-2.41a25.33,25.33,0,0,1,1.46-2.47,9.45,9.45,0,0,1,.93-1.18c.18-.18.36-.36.56-.53a5.55,5.55,0,0,1,.63-.45,4.35,4.35,0,0,1,1.49-.57l.2,0,.2,0h.21a1.34,1.34,0,0,1,.2,0,3.62,3.62,0,0,1,.82.17,7.65,7.65,0,0,1,2.77,1.78,10.71,10.71,0,0,1,1.11,1.24l.24.34.12.16.11.17.23.34.2.35.1.17a1.62,1.62,0,0,0,.1.18l.18.35.09.18.09.18.16.36c.1.24.21.48.3.72l.27.73A21.05,21.05,0,0,1,88.2,36l.07.36,0,.36c0,.24.08.48.11.72,0,.48.11,1,.14,1.41l0,.35c0,.12,0,.23,0,.35l0,.69c0,.11,0,.23,0,.34v1c0,.11,0,.23,0,.34v.33l0,.66,0,.65c0,.21,0,.43,0,.64A26,26,0,0,1,87.71,49l-.16.55-.09.28-.09.26-.19.53c-.06.17-.13.35-.2.52l-.1.25a2.72,2.72,0,0,1-.11.25l-.22.49-.24.48-.11.23-.13.23-.25.45-.26.44-.27.42c-.1.14-.18.28-.28.41a16.26,16.26,0,0,1-1.18,1.5c-.41.46-.83.88-1.26,1.28s-.86.74-1.29,1.07-.87.62-1.31.88c-.21.14-.42.27-.64.39L79,60l-.16.09-.17.08a8,8,0,0,1-1.3.44c-.42.11-.83.2-1.23.28-.79.15-1.52.25-2.18.34-1.33.17-2.41.26-3.26.32s-1.47.09-1.87.1S68.25,61.69,68.25,61.66Z"/><path class="cls-15" d="M27.62,51.45a2.7,2.7,0,0,0-3.71,2.46,12.51,12.51,0,0,0,.87,6.3c1.44,2.59,2.93,3.49,4.79,3.68a4.22,4.22,0,0,0,2.75-.36c.36-.22-.14-4.68-1.42-7.28C30.53,55.51,29.75,52.11,27.62,51.45Z"/><path class="cls-13" d="M28.81,63.65l-.23-.06-.28-.09L28,63.37l-.19-.09-.09-.05-.1,0-.2-.12-.21-.13-.1-.08L27,62.77l-.21-.16a7.42,7.42,0,0,1-.82-.85c-.13-.17-.27-.34-.39-.52s-.25-.38-.38-.57l-.18-.3c-.05-.11-.12-.21-.17-.31l-.08-.16-.07-.17a3.24,3.24,0,0,1-.13-.33A9.49,9.49,0,0,1,24.16,58c-.08-.49-.14-1-.18-1.49s0-1,0-1.48c0-.12,0-.25,0-.37s0-.23,0-.35l0-.35c0-.12,0-.23,0-.34a4,4,0,0,1,.16-.64,3.29,3.29,0,0,1,.29-.56,2.37,2.37,0,0,1,.85-.74,2.92,2.92,0,0,1,.92-.28,3.72,3.72,0,0,1,.74,0c.41,0,.64.12.64.1l-.16-.06a3.62,3.62,0,0,0-.47-.1,3.76,3.76,0,0,0-.76,0,3,3,0,0,0-1,.27,2.38,2.38,0,0,0-.9.76,2.67,2.67,0,0,0-.31.58,3.57,3.57,0,0,0-.18.66c0,.12,0,.24,0,.36l0,.35c0,.12,0,.24,0,.36s0,.24,0,.36c0,.49,0,1,0,1.5s.09,1,.17,1.51a8.78,8.78,0,0,0,.37,1.47,3.62,3.62,0,0,0,.13.35l.08.17.08.17a3.07,3.07,0,0,0,.17.31l.18.31c.13.2.25.4.38.58s.27.36.4.54a8,8,0,0,0,.85.88l.22.17.1.09.11.07.21.14.22.12.1.06.1,0,.19.09.36.14.29.1.24.06.11,0,.13,0,.31.05c.23,0,.51.06.82.08a5.47,5.47,0,0,0,1.06,0,3,3,0,0,0,1.19-.4l0,0,0,0a.26.26,0,0,0,0-.08.79.79,0,0,0,0-.13,2.6,2.6,0,0,0,0-.26c0-.17,0-.34,0-.52,0-.34-.05-.7-.1-1.06A19.12,19.12,0,0,0,32,59.3a15.58,15.58,0,0,0-.66-2.17,4.71,4.71,0,0,0-.21-.52c0-.08-.07-.17-.11-.25L31,56.24a1.34,1.34,0,0,0-.06-.12c-.13-.33-.25-.67-.37-1a11.37,11.37,0,0,0-.8-1.75,5.14,5.14,0,0,0-.45-.69,4.36,4.36,0,0,0-.48-.54,3.55,3.55,0,0,0-.46-.37,2.54,2.54,0,0,0-.39-.21l-.14-.06-.12,0-.09,0,.09,0,.1,0,.15.07.37.22a3.47,3.47,0,0,1,.44.38,5.51,5.51,0,0,1,.89,1.23,11.8,11.8,0,0,1,.76,1.74c.12.32.22.66.36,1l.06.12.06.13a2.56,2.56,0,0,0,.11.24c.07.17.14.34.2.51a16.85,16.85,0,0,1,.64,2.16,21.74,21.74,0,0,1,.39,2.18c0,.35.07.7.09,1a4.17,4.17,0,0,1,0,.5,1.94,1.94,0,0,1,0,.24s0,.07,0,.1,0,0,0,0h0a2.74,2.74,0,0,1-.55.26,4,4,0,0,1-.56.12,5.83,5.83,0,0,1-1,0c-.3,0-.58,0-.8-.08l-.3,0-.13,0Z"/><path class="cls-13" d="M28.63,57.6a1.92,1.92,0,0,0-.16.23,1.24,1.24,0,0,0-.16.46,1.49,1.49,0,0,0,0,.59,1.54,1.54,0,0,0,.27.58,1.93,1.93,0,0,0,.44.42,2.6,2.6,0,0,0,.45.25,1,1,0,0,0,.47.11,3.08,3.08,0,0,0-.43-.21,2.2,2.2,0,0,1-.79-.67,1.51,1.51,0,0,1-.24-1,1,1,0,0,1,.15-.38c.06-.1.12-.17.15-.22a1,1,0,0,0,.14-.27.85.85,0,0,0,0-.5,1.56,1.56,0,0,0-.31-.52,2.27,2.27,0,0,0-.48-.4,2.44,2.44,0,0,0-1.06-.35,1.08,1.08,0,0,0-.48,0,2.83,2.83,0,0,0,.47.07,2.44,2.44,0,0,1,1,.4,2.32,2.32,0,0,1,.44.38,1.19,1.19,0,0,1,.25.45.69.69,0,0,1,0,.38A1.72,1.72,0,0,1,28.63,57.6Z"/><path class="cls-15" d="M76.77,51.75a2.69,2.69,0,0,1,3.68,2.5,12.48,12.48,0,0,1-1,6.29c-1.46,2.57-3,3.45-4.83,3.62a4.29,4.29,0,0,1-2.75-.39c-.36-.23.2-4.68,1.51-7.26C73.81,55.77,74.63,52.38,76.77,51.75Z"/><path class="cls-13" d="M75.48,64.14l.24-.06L76,64l.35-.13.2-.1.1,0,.1-.06.21-.12.22-.14.11-.07.11-.08c.07-.06.15-.11.22-.18a7.09,7.09,0,0,0,.86-.87c.13-.17.27-.34.4-.53s.26-.37.38-.57a3.21,3.21,0,0,0,.19-.31l.18-.31.08-.17.08-.17c0-.11.09-.23.13-.34a8.16,8.16,0,0,0,.39-1.47,15.19,15.19,0,0,0,.19-1.51c0-.5,0-1,0-1.49,0-.13,0-.25,0-.37s0-.24,0-.36l0-.35c0-.12,0-.24,0-.36a3.55,3.55,0,0,0-.17-.66,2.65,2.65,0,0,0-.3-.58,2.29,2.29,0,0,0-.9-.78,2.93,2.93,0,0,0-1.71-.27,2.81,2.81,0,0,0-.47.09c-.11,0-.16.05-.16.06s.23-.06.64-.1a3.21,3.21,0,0,1,.74,0,2.68,2.68,0,0,1,.92.28,2.38,2.38,0,0,1,.84.75,3.25,3.25,0,0,1,.28.56,3.5,3.5,0,0,1,.15.64,2,2,0,0,1,0,.34l0,.36c0,.11,0,.23,0,.35s0,.24,0,.37c0,.48,0,1-.05,1.48a14.81,14.81,0,0,1-.2,1.49,8.37,8.37,0,0,1-.39,1.43c0,.11-.08.23-.13.34l-.07.16-.09.16c0,.1-.11.2-.17.3l-.18.3c-.13.19-.25.39-.39.57s-.26.35-.39.51a6.66,6.66,0,0,1-.84.84l-.21.17-.1.08a.41.41,0,0,0-.11.07l-.21.13-.2.11-.1.06-.09,0-.19.09-.34.13-.29.08-.23.06-.1,0-.13,0-.3,0c-.22,0-.5,0-.8.07a5,5,0,0,1-1,0,4.09,4.09,0,0,1-.56-.13,2.43,2.43,0,0,1-.54-.26h0v0a.36.36,0,0,1,0-.11,1.64,1.64,0,0,1,0-.23,4.21,4.21,0,0,1,0-.5c0-.34,0-.69.1-1a22,22,0,0,1,.42-2.18,17.26,17.26,0,0,1,.66-2.15l.21-.5c0-.09.08-.17.11-.25l.06-.12a.52.52,0,0,0,.06-.13c.14-.34.25-.67.38-1a11.64,11.64,0,0,1,.78-1.73,5.16,5.16,0,0,1,.91-1.22,3.46,3.46,0,0,1,.44-.37,2.72,2.72,0,0,1,.37-.22l.14-.07.11,0,.09,0-.09,0-.12,0-.15.06-.39.21a3.25,3.25,0,0,0-.46.36,5.08,5.08,0,0,0-.48.53,7.55,7.55,0,0,0-.47.69,12.26,12.26,0,0,0-.82,1.74c-.12.32-.24.66-.38,1a.61.61,0,0,1,0,.12l-.07.12c0,.09-.07.17-.11.25s-.15.34-.22.52a17,17,0,0,0-.69,2.16,21.7,21.7,0,0,0-.43,2.19c0,.36-.09.71-.11,1.06a4.34,4.34,0,0,0,0,.51,2.17,2.17,0,0,0,0,.26l0,.14,0,.07,0,0a.1.1,0,0,0,.05,0,3,3,0,0,0,1.18.43,6.46,6.46,0,0,0,1.06,0c.31,0,.59,0,.82-.08l.31,0,.13,0Z"/><path class="cls-13" d="M75.51,58s.09.12.15.22a1.21,1.21,0,0,1,.14.38,1.53,1.53,0,0,1,0,.52,1.72,1.72,0,0,1-.23.52,2.11,2.11,0,0,1-.81.66c-.25.13-.43.19-.43.21a1,1,0,0,0,.48-.11,2.88,2.88,0,0,0,.45-.24,1.93,1.93,0,0,0,.44-.42,1.6,1.6,0,0,0,.28-.57,1.55,1.55,0,0,0,0-.6,1.38,1.38,0,0,0-.16-.46,1.92,1.92,0,0,0-.16-.23,1,1,0,0,1-.11-.21.69.69,0,0,1,0-.38,1.38,1.38,0,0,1,.26-.45,2,2,0,0,1,.44-.37,2.67,2.67,0,0,1,1-.39c.28,0,.47,0,.47-.06a1,1,0,0,0-.48,0,2.42,2.42,0,0,0-1.06.34,2.34,2.34,0,0,0-.49.39,1.29,1.29,0,0,0-.31.52.78.78,0,0,0,0,.5A.79.79,0,0,0,75.51,58Z"/><path class="cls-7" d="M51.5,34.5c-8,0-14.55,1.53-18.22,6.06-1.71,2.13-3.25,10.7-3.3,19s9.83,15.15,22.08,15.22,22.2-6.62,22.25-15-1.38-16.92-3.07-19.07c-3.61-4.58-10.1-6.13-18.14-6.28"/><path class="cls-13" d="M52.06,74.72a32.92,32.92,0,0,1-5.38-.49,29.41,29.41,0,0,1-4-1,25.82,25.82,0,0,1-4.42-1.9A19.93,19.93,0,0,1,34,68.18,15.33,15.33,0,0,1,32.15,66a12.54,12.54,0,0,1-1.36-2.56,10.7,10.7,0,0,1-.67-2.88l0-.18c0-.06,0-.13,0-.19s0-.25,0-.37,0-.5,0-.75l0-1.52c.07-2,.22-4.05.45-6.05a56.06,56.06,0,0,1,1-5.89,27.9,27.9,0,0,1,.76-2.79,12.14,12.14,0,0,1,.52-1.3l.08-.16a1.09,1.09,0,0,1,.08-.15l.08-.16.09-.14a2.83,2.83,0,0,1,.2-.28c.06-.09.14-.18.21-.27l.46-.5a2.83,2.83,0,0,1,.24-.25,2.61,2.61,0,0,1,.24-.23l.24-.23.13-.11.13-.11.25-.21.26-.21a14.76,14.76,0,0,1,2.17-1.36A19.84,19.84,0,0,1,42,35.55c.7-.17,1.38-.31,2-.42s1.26-.2,1.84-.27c1.16-.14,2.17-.21,3-.26L50,34.55l.82,0,.5,0H50l-1.11,0c-.83,0-1.85.1-3,.23-.58.07-1.19.15-1.84.26s-1.33.24-2,.41a20.38,20.38,0,0,0-4.41,1.6,13.75,13.75,0,0,0-2.19,1.37l-.26.2-.26.22-.13.11-.13.11-.25.23-.24.24a2.72,2.72,0,0,0-.24.24c-.16.17-.32.33-.46.51l-.23.27c-.07.1-.14.19-.2.29l-.09.15-.09.16a1.09,1.09,0,0,0-.08.15l-.08.16a11.88,11.88,0,0,0-.53,1.33,25,25,0,0,0-.77,2.8,55.83,55.83,0,0,0-1,5.9c-.23,2-.39,4-.46,6.07,0,.5,0,1,0,1.51,0,.26,0,.51,0,.76s0,.26,0,.38a1.28,1.28,0,0,1,0,.19l0,.19a11.16,11.16,0,0,0,.68,2.93A12.67,12.67,0,0,0,32,66.12a14.56,14.56,0,0,0,1.85,2.2,20.08,20.08,0,0,0,4.35,3.21,25.89,25.89,0,0,0,4.45,1.92,31.24,31.24,0,0,0,4,1,32.9,32.9,0,0,0,5.4.48,32.44,32.44,0,0,0,5.42-.42,29.48,29.48,0,0,0,4-1A24.93,24.93,0,0,0,66,71.69a19.34,19.34,0,0,0,4.39-3.15,15.12,15.12,0,0,0,1.87-2.18,11.73,11.73,0,0,0,1.41-2.58,10.77,10.77,0,0,0,.72-2.92l0-.19c0-.06,0-.13,0-.19s0-.25,0-.38,0-.51,0-.76c0-.5,0-1,0-1.52,0-2-.17-4.06-.38-6.07a56.42,56.42,0,0,0-.9-5.91A28.2,28.2,0,0,0,72.37,43a11.83,11.83,0,0,0-.52-1.33l-.07-.16-.09-.16-.08-.16-.09-.15c-.06-.1-.13-.19-.2-.29l-.22-.27c-.15-.18-.3-.35-.46-.52s-.16-.16-.24-.25-.15-.16-.24-.24l-.24-.23-.13-.11-.13-.11-.25-.22-.26-.21A14.63,14.63,0,0,0,67,37.22a20.66,20.66,0,0,0-4.39-1.65c-.7-.18-1.38-.32-2-.43s-1.26-.21-1.84-.28c-1.16-.15-2.17-.22-3-.27-.42,0-.79,0-1.11-.05l-.82,0H53.1s0,0,0,0h.13l.51,0,.81,0,1.11.06c.83.06,1.84.15,3,.3.58.08,1.19.17,1.83.29s1.33.26,2,.45a20,20,0,0,1,4.37,1.65,14.1,14.1,0,0,1,2.15,1.4l.25.2.26.22.12.11.12.11.25.23.24.24.23.24c.15.17.31.34.45.52l.22.27c.06.09.13.18.19.28l.08.15.09.15a1.09,1.09,0,0,0,.08.15l.07.16a13.69,13.69,0,0,1,.51,1.31,28.7,28.7,0,0,1,.72,2.8,56.23,56.23,0,0,1,.88,5.9c.21,2,.33,4,.37,6.06,0,.5,0,1,0,1.51,0,.25,0,.51,0,.75s0,.25,0,.38a1.09,1.09,0,0,1,0,.18l0,.19a10.76,10.76,0,0,1-.7,2.87,12.28,12.28,0,0,1-1.4,2.54,14.08,14.08,0,0,1-1.85,2.14,19.15,19.15,0,0,1-4.34,3.12,25.15,25.15,0,0,1-4.44,1.85,29,29,0,0,1-4,.94A33.23,33.23,0,0,1,52.06,74.72Z"/><path class="cls-11" d="M64.27,56.79l-.4.29A.41.41,0,0,1,64.27,56.79Z"/><path class="cls-13" d="M64.27,56.79c.25-.07.43,0,.46.27A4.93,4.93,0,0,1,63,59.14a1.38,1.38,0,0,1-1.15.19s-.12,0-.14,0c-.64.49-1.51.1-2.15.59a.92.92,0,0,1-1.11.19c-.26-.15-.49.07-.73.17s-.43.15-.62-.06-.1-.39,0-.58c.23-.39.44-.79.71-1.16a1.63,1.63,0,0,1,1.54-.72c.13,0,.3.08.38,0,.86-.56,1.89-.08,2.76-.48a.54.54,0,0,1,.56,0c.37.27.63.1.86-.19a1.64,1.64,0,0,1,.4-.29Z"/><path class="cls-13" d="M40.06,56.65c-.25-.07-.43,0-.46.26A5,5,0,0,0,41.35,59a1.35,1.35,0,0,0,1.15.2s.12-.05.14,0c.63.5,1.51.13,2.14.62a.91.91,0,0,0,1.11.2c.26-.14.49.08.72.18s.43.16.63,0,.1-.39,0-.58c-.22-.39-.43-.79-.69-1.16A1.63,1.63,0,0,0,45,57.64c-.13,0-.29.08-.38,0-.85-.57-1.88-.1-2.75-.51a.54.54,0,0,0-.56,0c-.37.26-.63.1-.86-.2a1.42,1.42,0,0,0-.39-.29Z"/><path class="cls-16" d="M52.51,55.62a1.41,1.41,0,0,1,.29,0c.15,0,.39,0,.39.19s-.23.09-.36.1a2.77,2.77,0,0,0-1.67.8c-.07.07-.13.23-.26.11s0-.18,0-.26A1.51,1.51,0,0,1,52.51,55.62Z"/><path class="cls-17" d="M46.58,52.4a3.64,3.64,0,0,1-.83,2.5,1.07,1.07,0,0,1-1.7,0c-1.16-1.15-1.11-4.16.1-5.25a1.07,1.07,0,0,1,1.66.14A3.83,3.83,0,0,1,46.58,52.4Z"/><path class="cls-18" d="M43.61,52.26c.06-.46,0-1.1.62-1.1s.59.65.59,1.11,0,1.15-.61,1.15S43.66,52.74,43.61,52.26Z"/><path class="cls-19" d="M61.17,52.46a4.12,4.12,0,0,1-.58,2.22,1.19,1.19,0,0,1-2.21,0,4.33,4.33,0,0,1,0-4.45c.61-1.1,1.63-1.06,2.28,0A4.12,4.12,0,0,1,61.17,52.46Z"/><path class="cls-20" d="M59.68,52.38c-.08.46,0,1.14-.63,1.12s-.57-.67-.56-1.13,0-1.11.59-1.11S59.61,51.92,59.68,52.38Z"/><path class="cls-21" d="M55.58,45.42a.42.42,0,0,1,.11-.47,1.76,1.76,0,0,1,.76-.38A6.35,6.35,0,0,1,58,44.33a7.46,7.46,0,0,1,2.35.25,6.71,6.71,0,0,1,2.18,1,4.75,4.75,0,0,1,1.13,1.11,3.29,3.29,0,0,1,.27.44,1.6,1.6,0,0,1,.1.35.44.44,0,0,1-.23.43.49.49,0,0,1-.48,0,.83.83,0,0,1-.25-.19,2.84,2.84,0,0,1-.31-.3,9.15,9.15,0,0,0-1-.86A5.25,5.25,0,0,0,60,45.74a6.27,6.27,0,0,0-2-.18c-.55,0-1,.11-1.33.16a2.32,2.32,0,0,1-.77,0A.47.47,0,0,1,55.58,45.42Z"/><path class="cls-21" d="M48.88,45.38a.44.44,0,0,1-.35.32,2.13,2.13,0,0,1-.77,0c-.34,0-.78-.13-1.33-.17a6.49,6.49,0,0,0-2,.16,5.12,5.12,0,0,0-1.77.83,7.56,7.56,0,0,0-1,.85,4,4,0,0,1-.31.29.94.94,0,0,1-.26.18.44.44,0,0,1-.47,0,.42.42,0,0,1-.23-.43,1.25,1.25,0,0,1,.11-.35,2.5,2.5,0,0,1,.27-.44A5,5,0,0,1,42,45.47a6.67,6.67,0,0,1,2.19-1,8,8,0,0,1,2.36-.22,6.21,6.21,0,0,1,1.52.26,1.82,1.82,0,0,1,.75.39A.4.4,0,0,1,48.88,45.38Z"/><path class="cls-12" d="M26.64,51.28c.5,0,1.07,0,1.22.35a15.67,15.67,0,0,1,.69,2.67,2.6,2.6,0,0,0,1.8,1.94,1.43,1.43,0,0,0,1.37-.79,3.69,3.69,0,0,0,.34-1.64c0-1,0-3.19.29-3.66,1.21-1.89,2.31-6.5,2-9.79-.07-.75-3.08.87-4.64,2.64a14.06,14.06,0,0,0-3.06,8.28"/><path class="cls-13" d="M33.85,45c0,.14-.07.35-.11.59s-.06.26-.09.41-.07.31-.11.47L33.4,47l-.17.57c-.06.2-.13.41-.2.62l-.12.32c0,.11-.08.22-.13.33l-.14.33a1.19,1.19,0,0,1-.08.16l-.08.17-.08.16-.09.17-.1.16-.05.09,0,.06a.14.14,0,0,0,0,.06,2.32,2.32,0,0,0-.1.42c0,.14,0,.28,0,.42s0,.55-.05.83c0,.56,0,1.13,0,1.69a4.54,4.54,0,0,1-.23,1.62,2.21,2.21,0,0,1-.18.34,1.73,1.73,0,0,1-.26.28,1.2,1.2,0,0,1-.65.29,1.21,1.21,0,0,1-.69-.18,2.17,2.17,0,0,1-.57-.47,2.71,2.71,0,0,1-.42-.6c-.05-.1-.1-.21-.14-.31a1.09,1.09,0,0,1-.05-.17l0-.08,0-.08q-.16-.69-.3-1.29A10.59,10.59,0,0,0,28,51.84a2.14,2.14,0,0,0-.1-.22v0l0,0,0-.05-.1-.08a1.12,1.12,0,0,0-.39-.13,4.13,4.13,0,0,0-.55,0h-.19a.5.5,0,0,0,.19,0c.12,0,.31,0,.53.08a1,1,0,0,1,.33.13l.07.07,0,0v0l0,0c0,.06.05.13.08.21A9.69,9.69,0,0,1,28.15,53c.09.4.17.83.27,1.29a1.16,1.16,0,0,0,0,.18,1.21,1.21,0,0,0,.05.18,2.17,2.17,0,0,0,.15.35,3.18,3.18,0,0,0,.43.67,2.82,2.82,0,0,0,.64.54,1.56,1.56,0,0,0,.86.23,1.51,1.51,0,0,0,.84-.35,1.72,1.72,0,0,0,.32-.34,2.24,2.24,0,0,0,.22-.4,3.39,3.39,0,0,0,.23-.87c0-.29,0-.58,0-.87,0-.57,0-1.14,0-1.69,0-.27,0-.54.05-.81s0-.26,0-.38a1.64,1.64,0,0,1,.08-.35l.07-.14.11-.17.1-.18.08-.17.09-.17.08-.17.15-.35.14-.33.12-.33c.07-.22.15-.43.21-.63l.18-.59.14-.53c0-.17.08-.33.12-.48l.09-.42.12-.61.1-.61c0-.12,0-.27.06-.42s0-.31.06-.49A17.81,17.81,0,0,0,34.59,41c0-.12,0-.25,0-.38l0-.19v-.17l0-.08a.4.4,0,0,0-.28-.21A1.17,1.17,0,0,0,34,40a2.58,2.58,0,0,0-.42.1,5.8,5.8,0,0,0-.76.33c-.25.13-.49.27-.73.42a13.26,13.26,0,0,0-1.39,1,9.45,9.45,0,0,0-1.23,1.22,11,11,0,0,0-1,1.41c-.07.12-.14.24-.2.36l-.19.36c-.11.25-.23.49-.33.73s-.19.48-.27.72a3.59,3.59,0,0,0-.12.35c0,.12-.08.23-.11.34l-.09.34-.09.33L27,48.3c0,.11-.05.21-.07.31a17.58,17.58,0,0,0-.28,1.94,4.07,4.07,0,0,0,0,.73,3.12,3.12,0,0,0,.13-.72c.08-.46.17-1.12.36-1.91,0-.09.05-.19.08-.29l.08-.32c0-.1.06-.21.1-.32l.1-.32c0-.11.07-.23.11-.34s.08-.23.13-.34.18-.46.28-.7.22-.47.34-.7l.18-.35.21-.35a10.29,10.29,0,0,1,1-1.35,9.4,9.4,0,0,1,1.2-1.16,12,12,0,0,1,1.36-1c.23-.15.47-.28.7-.4a6,6,0,0,1,.71-.3,1.65,1.65,0,0,1,.34-.08h.14v.29c0,.11,0,.23,0,.35a16.77,16.77,0,0,1-.11,2.48c0,.17,0,.33-.06.48s0,.28-.06.41Z"/><path class="cls-12" d="M77.75,51.59c-.49,0-1.07,0-1.22.33a16,16,0,0,0-.73,2.66A2.56,2.56,0,0,1,74,56.5a1.43,1.43,0,0,1-1.37-.81,3.67,3.67,0,0,1-.32-1.64c0-1,0-3.19-.24-3.66a18.92,18.92,0,0,1-1.88-9.82c.08-.75,3.08.91,4.61,2.7a14.09,14.09,0,0,1,3,8.32"/><path class="cls-13" d="M70.19,45.29c0,.15.06.36.11.61s.06.27.09.42.06.31.11.48l.13.53.17.59c.06.21.14.42.21.64s.08.21.12.33.08.22.13.33l.14.35s0,.11.08.17l.09.17.08.18.1.17.1.18a.88.88,0,0,1,.07.13,1.8,1.8,0,0,1,.08.35c0,.13,0,.26,0,.39s0,.54,0,.81c0,.55,0,1.12,0,1.69,0,.29,0,.57,0,.87a3,3,0,0,0,.21.87,2.32,2.32,0,0,0,.22.41,2,2,0,0,0,.31.34,1.41,1.41,0,0,0,1.71.14,2.59,2.59,0,0,0,.64-.54,3.54,3.54,0,0,0,.44-.65,2.75,2.75,0,0,0,.15-.36l.06-.18c0-.06,0-.12,0-.17.1-.46.19-.9.28-1.29a10.06,10.06,0,0,1,.28-1.06,1.31,1.31,0,0,1,.08-.21v0h0l0,0,.07-.06a.84.84,0,0,1,.33-.13c.22-.05.41-.06.53-.08a.41.41,0,0,0,.19,0,.76.76,0,0,0-.19,0,4.13,4.13,0,0,0-.55,0,1.08,1.08,0,0,0-.39.12l-.1.08,0,.06,0,0v0a1.6,1.6,0,0,0-.1.23A7.83,7.83,0,0,0,76,53.2c-.11.39-.21.82-.32,1.28l0,.09,0,.08a1.42,1.42,0,0,1-.05.16,2.2,2.2,0,0,1-.15.31,3.36,3.36,0,0,1-.41.6,2.35,2.35,0,0,1-.58.46,1.09,1.09,0,0,1-1.35-.13,1.8,1.8,0,0,1-.25-.29,1.56,1.56,0,0,1-.18-.34,4.74,4.74,0,0,1-.21-1.62c0-.56,0-1.13,0-1.69,0-.28,0-.55,0-.83s0-.28,0-.41a2.36,2.36,0,0,0-.09-.43l0-.06a.14.14,0,0,0,0-.06l-.06-.09-.09-.17L72,49.9l-.08-.17-.08-.16c0-.06,0-.11-.07-.17l-.14-.33c0-.11-.08-.22-.12-.33l-.12-.32c-.07-.21-.13-.42-.19-.62L71,47.23l-.13-.53c0-.17-.07-.33-.1-.48s-.06-.28-.08-.4-.09-.45-.11-.6l-.1-.6c0-.13,0-.27,0-.41s0-.31,0-.48a15.85,15.85,0,0,1-.09-2.48l0-.36V40.6h.14a2.37,2.37,0,0,1,.34.08,5.35,5.35,0,0,1,.7.31c.24.13.47.26.7.41a11.59,11.59,0,0,1,1.35,1,8.16,8.16,0,0,1,1.18,1.17,9.43,9.43,0,0,1,.94,1.36c.07.12.14.23.2.35l.19.35c.11.24.23.48.32.71s.19.47.28.7.08.23.12.35.08.22.11.33l.1.33.09.32.08.32c0,.1,0,.2.07.3.19.78.27,1.45.34,1.91a3.82,3.82,0,0,0,.12.72,3.42,3.42,0,0,0,0-.73,17.13,17.13,0,0,0-.26-2c0-.1,0-.2-.06-.3l-.07-.32c0-.11,0-.22-.08-.33l-.09-.34c0-.11-.07-.23-.11-.34a3.58,3.58,0,0,0-.11-.35q-.12-.36-.27-.72c-.09-.25-.2-.49-.31-.74l-.19-.36c-.06-.13-.13-.25-.19-.37a11.61,11.61,0,0,0-1-1.41,8.42,8.42,0,0,0-1.22-1.24,13.25,13.25,0,0,0-1.37-1q-.36-.23-.72-.42A5.7,5.7,0,0,0,71,40.3a1.85,1.85,0,0,0-.42-.11.78.78,0,0,0-.26,0,.39.39,0,0,0-.28.2l0,.08v.17l0,.2,0,.37A16.91,16.91,0,0,0,70,43.77c0,.17,0,.33.05.49l.06.42Z"/><path class="cls-14" d="M52.2,46.11A24.32,24.32,0,0,1,32.5,36c.69-1.88,1.83-6.1,4.38-8.07,2.87-2.22,3.95-2.49,5.22-3.83,1.12-1.2,3.16-4.45,4-5.18a2.19,2.19,0,0,1,3,.26c1,1.19,1.43,3.47,2.48,4.54A2.27,2.27,0,0,0,54,24c.72-.49,2.17-2.72,3.26-2.81a4.09,4.09,0,0,1,3.16,1.13c1,.89,1.85,2.77,3.21,4s2.33,1,4.36,2.36c2.65,1.83,3.55,5.71,4.21,7.6a24.89,24.89,0,0,1-20,9.87"/><path class="cls-13" d="M52.2,46.11a2,2,0,0,1,.66-.08l.38,0h.23l.24,0,.57,0,.31,0,.34,0,.75-.09.85-.14.23,0,.11,0,.12,0,.48-.1.51-.11.52-.14.28-.07.27-.07.58-.17.29-.09.3-.11.62-.21a24.94,24.94,0,0,0,2.64-1.15,29.29,29.29,0,0,0,2.88-1.71,28,28,0,0,0,3-2.4c.49-.46,1-1,1.47-1.49.24-.27.48-.54.71-.83l.17-.22.17-.22c.06-.08.12-.15.17-.23l0,0h0l0-.07c-.24-.74-.47-1.49-.74-2.25a19.43,19.43,0,0,0-1-2.27,9.18,9.18,0,0,0-1.5-2.1,6.51,6.51,0,0,0-1-.84,8.89,8.89,0,0,0-1.2-.69c-.42-.2-.86-.37-1.32-.55-.22-.1-.45-.2-.67-.32L64.41,27,64.33,27l-.08,0-.16-.11-.15-.11a6.94,6.94,0,0,1-1.12-1.05,14.51,14.51,0,0,1-1-1.24c-.3-.42-.59-.86-.91-1.28a5.84,5.84,0,0,0-.51-.59,4.19,4.19,0,0,0-.6-.5,3.93,3.93,0,0,0-1.45-.63,4.26,4.26,0,0,0-.8-.08h-.3l-.09,0a1.3,1.3,0,0,0-.36.13,3.76,3.76,0,0,0-.66.49c-.2.18-.4.39-.6.6s-.39.43-.58.64-.4.45-.62.66l-.17.15-.1.08-.11.07,0,0-.06,0-.12.05a2,2,0,0,1-.23.06,2.81,2.81,0,0,1-1,0l-.23-.05-.12,0-.11,0a1.81,1.81,0,0,1-.44-.22l-.11-.08-.09-.09-.16-.18,0-.05,0,0-.08-.1-.07-.1-.06-.1a10.35,10.35,0,0,1-.84-1.66C50,21,49.74,20.48,49.46,20a4.16,4.16,0,0,0-.47-.71,1.8,1.8,0,0,0-.64-.48,2.06,2.06,0,0,0-1.56-.08,1.76,1.76,0,0,0-.67.4l-.27.3-.26.31c-.34.44-.66.88-1,1.32l-.94,1.31c-.32.44-.63.86-1,1.27l-.25.3-.26.3c-.09.09-.18.19-.28.28s-.18.18-.28.26a11.82,11.82,0,0,1-1.23.91l-1.23.8c-.4.27-.79.54-1.17.82l-.57.41-.28.21-.27.21a7.67,7.67,0,0,0-1,.94,11.58,11.58,0,0,0-1.41,2.18c-.38.75-.7,1.52-1,2.27S33,35,32.76,35.73l-.09.25h0l.08.11q.16.24.33.45c.22.3.45.58.68.86.47.55.95,1.06,1.43,1.53l.37.35.36.34.37.33.36.31.19.15.18.15.36.29.37.28.36.27A25.33,25.33,0,0,0,41,43.17a23.73,23.73,0,0,0,2.63,1.2l.61.23.29.11.3.09.57.18.28.08.27.07.52.15.51.11c.33.07.64.15.93.2l.85.15.75.1.34,0,.31,0,.57.05.24,0h.23l.38,0a2,2,0,0,1,.66.08,3,3,0,0,1-.67,0h-.61l-.24,0-.57,0-.32,0-.34,0L48.69,46l-.86-.14c-.3,0-.61-.11-.95-.18l-.51-.11-.53-.14-.28-.07-.28-.08-.58-.18L44.41,45l-.3-.11-.63-.22a28.41,28.41,0,0,1-2.66-1.21A24.47,24.47,0,0,1,38,41.65l-.37-.27-.37-.28-.37-.29-.19-.15-.18-.16-.37-.31-.37-.33c-.13-.11-.25-.23-.37-.35s-.25-.23-.37-.35c-.49-.48-1-1-1.45-1.55-.24-.28-.47-.57-.7-.87l-.33-.46-.09-.12-.07-.11,0,0s0,0,0,0l0-.07.1-.29a33,33,0,0,1,1.79-4.54,11.51,11.51,0,0,1,1.44-2.24,7.73,7.73,0,0,1,1-1l.28-.21.28-.21.57-.42c.38-.28.78-.55,1.18-.82l1.23-.81a11.55,11.55,0,0,0,1.2-.88l.27-.25L42,24l.25-.28.25-.3c.32-.4.63-.82.94-1.25l.94-1.31c.32-.45.64-.89,1-1.33l.27-.33a2.24,2.24,0,0,1,.3-.32,2,2,0,0,1,.77-.47,2.47,2.47,0,0,1,1.79.09,2.17,2.17,0,0,1,.75.57,5.54,5.54,0,0,1,.5.76c.29.53.52,1.09.76,1.64a10.21,10.21,0,0,0,.81,1.62l.06.09.07.09.06.09,0,0,0,.05.15.16.07.07.08.06a1.62,1.62,0,0,0,.37.19l.1,0,.11,0,.21.05a2.16,2.16,0,0,0,.84,0l.2-.05.09,0h0l0,0a1.26,1.26,0,0,0,.32-.25c.21-.2.41-.42.6-.64l.59-.65c.2-.21.4-.42.62-.62a4.32,4.32,0,0,1,.72-.53,1.65,1.65,0,0,1,.44-.16l.12,0h.33a4.91,4.91,0,0,1,.86.08,4.29,4.29,0,0,1,1.56.68A4.82,4.82,0,0,1,61.2,23c.33.42.62.86.92,1.29s.6.83.93,1.21a6.79,6.79,0,0,0,1.07,1l.14.1.16.1.07.05.08,0,.15.09c.21.11.43.21.65.3.44.19.9.36,1.33.56a10,10,0,0,1,1.24.71,7.68,7.68,0,0,1,1.08.88,9.54,9.54,0,0,1,1.55,2.18A28.41,28.41,0,0,1,72.31,36l.07.18v0s0,0,0,0l0,.06-.06.08-.17.24-.17.22-.18.22c-.24.3-.48.57-.72.85-.49.54-1,1-1.49,1.51a25.27,25.27,0,0,1-3,2.41,24.38,24.38,0,0,1-5.6,2.88l-.62.22-.3.1-.3.09-.58.17-.29.07-.27.07L58,45.6l-.51.1-.49.1-.11,0-.12,0-.23,0-.86.12-.76.08-.34,0-.32,0-.57,0h-.25a1.61,1.61,0,0,1-.22,0h-.39A2.48,2.48,0,0,1,52.2,46.11Z"/><path class="cls-13" d="M52.45,25a5.5,5.5,0,0,0,.44.37,8.13,8.13,0,0,0,.75.56c.54.36,1.07.64,1.12.57s-.43-.43-.91-.85c-.25-.2-.5-.41-.7-.59l-.41-.38a13.81,13.81,0,0,1-1.05-1c-.21-.24-.4-.47-.54-.65L51,22.83c0-.06-.08-.08-.1-.07s0,0,0,.12a1.05,1.05,0,0,0,.09.27,4.94,4.94,0,0,0,.45.75A8.78,8.78,0,0,0,52.45,25Z"/><path class="cls-22" d="M32.51,37.11a.87.87,0,0,0,1.19,1c4.14-1.71,10.93-2.8,18.59-2.76s14.44,1.22,18.56,3a.88.88,0,0,0,1.21-1l-.17-.85c-3.72-2.16-11-3.67-19.58-3.72s-15.88,1.36-19.63,3.49Z"/><path class="cls-13" d="M71.91,37.18a1,1,0,0,1,0,.53.87.87,0,0,1-.14.27.84.84,0,0,1-.27.22.74.74,0,0,1-.37.07h-.1l-.09,0a1,1,0,0,1-.22-.09c-.31-.12-.63-.26-1-.38l-.55-.19-.58-.19-.3-.09c-.1,0-.21-.06-.31-.09L67.37,37l-.68-.17-.35-.09L66,36.68l-.73-.16-.76-.15-.38-.08-.4-.07-.8-.14L62.1,36l-.41-.07-.42,0-.86-.11-.87-.1-.43,0-.45,0-.89-.08c-.6,0-1.2-.09-1.81-.12l-.92,0-.92,0-.46,0H50.43l-.91,0-.91,0-.46,0-.45,0-.89.05-.89.07-.43,0-.44,0-.85.09-.85.1a46.63,46.63,0,0,0-6,1.09l-.32.08-.3.08-.59.17-.56.17-.27.09-.25.09c-.34.11-.65.22-.93.34l-.41.16-.19.07a1.08,1.08,0,0,1-.19,0h-.17l-.16,0L32.91,38l-.06,0,0,0,0,0a.77.77,0,0,1-.25-.4.32.32,0,0,1,0-.09s0-.06,0-.08v-.13a.82.82,0,0,0,0-.1s0,0,0,.1a.49.49,0,0,0,0,.13s0,0,0,.08a.36.36,0,0,0,0,.1.92.92,0,0,0,.25.43l0,0,0,0,.07,0a.71.71,0,0,0,.15.08l.17.05a.59.59,0,0,0,.19,0l.2,0,.19-.06.41-.16c.28-.11.6-.21.93-.33l.26-.08.27-.08.55-.17.59-.16.31-.08.31-.08a47.41,47.41,0,0,1,5.95-1.05l.84-.1.86-.08.43,0,.44,0,.88-.06.89,0,.45,0h.45l.91,0,.92,0h1.84l.92,0h.92l.92,0,.91,0c.61,0,1.21.08,1.81.12l.89.08.44,0,.43,0,.87.1.85.11.42.05.41.07.82.12.8.14.39.07.38.08.75.15.73.16.36.09.34.08.67.18.65.18.31.09.3.09.58.19.54.19c.35.12.67.26,1,.38l.23.09a.28.28,0,0,0,.13,0h.12a.94.94,0,0,0,.48-.1,1,1,0,0,0,.52-.63s0-.06,0-.09,0-.06,0-.09a1,1,0,0,0,0-.17v-.07a.15.15,0,0,0,0-.07l0-.13L72,36.58l0-.12v0s0,0,0,0l0,0-.06,0-.17-.09-.35-.19-.19-.1L71,35.9l-.43-.2a3.9,3.9,0,0,0-.47-.2l-.51-.21a33,33,0,0,0-5.24-1.47,55.85,55.85,0,0,0-6.73-.92c-.6,0-1.2-.08-1.81-.12l-.92,0-.92,0-.92,0H50.26a65.27,65.27,0,0,0-7.07.54,45.16,45.16,0,0,0-5.94,1.18,22.11,22.11,0,0,0-4,1.48l-.59.32,0,0h0v.09l0,.13,0,.22,0,.3c0,.07,0,.11,0,.11l0-.11.06-.29,0-.22,0-.13v-.07h0l.6-.31a23.15,23.15,0,0,1,4-1.43,47.14,47.14,0,0,1,5.93-1.14,65.08,65.08,0,0,1,7.06-.51H53l.92,0,.92,0,.91,0c.61,0,1.21.07,1.81.12a57.31,57.31,0,0,1,6.7.93,33.6,33.6,0,0,1,5.21,1.47l.5.2.46.2.43.2.2.09.18.1.35.19.16.09h0v0Z"/><path class="cls-13" d="M71.91,37.18a1,1,0,0,1,0,.53.87.87,0,0,1-.14.27.84.84,0,0,1-.27.22.74.74,0,0,1-.37.07h-.1l-.09,0a1,1,0,0,1-.22-.09c-.31-.12-.63-.26-1-.38l-.55-.19-.58-.19-.3-.09c-.1,0-.21-.06-.31-.09L67.37,37l-.68-.17-.35-.09L66,36.68l-.73-.16-.76-.15-.38-.08-.4-.07-.8-.14L62.1,36l-.41-.07-.42,0-.86-.11-.87-.1-.43,0-.45,0-.89-.08c-.6,0-1.2-.09-1.81-.12l-.92,0-.92,0-.46,0H50.43l-.91,0-.91,0-.46,0-.45,0-.89.05-.89.07-.43,0-.44,0-.85.09-.85.1a46.63,46.63,0,0,0-6,1.09l-.32.08-.3.08-.59.17-.56.17-.27.09-.25.09c-.34.11-.65.22-.93.34l-.41.16-.19.07a1.08,1.08,0,0,1-.19,0h-.17l-.16,0L32.91,38l-.06,0,0,0,0,0a.77.77,0,0,1-.25-.4.32.32,0,0,1,0-.09s0-.06,0-.08v-.13a.82.82,0,0,0,0-.1s0,0,0,.1a.49.49,0,0,0,0,.13s0,0,0,.08a.36.36,0,0,0,0,.1.92.92,0,0,0,.25.43l0,0,0,0,.07,0a.71.71,0,0,0,.15.08l.17.05a.59.59,0,0,0,.19,0l.2,0,.19-.06.41-.16c.28-.11.6-.21.93-.33l.26-.08.27-.08.55-.17.59-.16.31-.08.31-.08a47.41,47.41,0,0,1,5.95-1.05l.84-.1.86-.08.43,0,.44,0,.88-.06.89,0,.45,0h.45l.91,0,.92,0h1.84l.92,0h.92l.92,0,.91,0c.61,0,1.21.08,1.81.12l.89.08.44,0,.43,0,.87.1.85.11.42.05.41.07.82.12.8.14.39.07.38.08.75.15.73.16.36.09.34.08.67.18.65.18.31.09.3.09.58.19.54.19c.35.12.67.26,1,.38l.23.09a.28.28,0,0,0,.13,0h.12a.94.94,0,0,0,.48-.1,1,1,0,0,0,.52-.63s0-.06,0-.09,0-.06,0-.09a1,1,0,0,0,0-.17v-.07a.15.15,0,0,0,0-.07l0-.13L72,36.58l0-.12v0s0,0,0,0l0,0-.06,0-.17-.09-.35-.19-.19-.1L71,35.9l-.43-.2a3.9,3.9,0,0,0-.47-.2l-.51-.21a33,33,0,0,0-5.24-1.47,55.85,55.85,0,0,0-6.73-.92c-.6,0-1.2-.08-1.81-.12l-.92,0-.92,0-.92,0H50.26a65.27,65.27,0,0,0-7.07.54,45.16,45.16,0,0,0-5.94,1.18,22.11,22.11,0,0,0-4,1.48l-.59.32,0,0h0v.09l0,.13,0,.22,0,.3c0,.07,0,.11,0,.11l0-.11.06-.29,0-.22,0-.13v-.07h0l.6-.31a23.15,23.15,0,0,1,4-1.43,47.14,47.14,0,0,1,5.93-1.14,65.08,65.08,0,0,1,7.06-.51H53l.92,0,.92,0,.91,0c.61,0,1.21.07,1.81.12a57.31,57.31,0,0,1,6.7.93,33.6,33.6,0,0,1,5.21,1.47l.5.2.46.2.43.2.2.09.18.1.35.19.16.09h0v0Z"/><path class="cls-14" d="M78.46,27c-2.95,2.25-4.85,7-7.77,10.39-4.31,4.94-10.17,6.28-18.45,6.23s-14.12-1.46-18.36-6.45C31,33.75,29.15,29,26.23,26.66l-1.87,1.72c1.94,0,4.46,7.09,7.64,10.48,4.68,5,11.11,7.54,20.23,7.59S67.8,44,72.54,39.11c3.22-3.35,5.82-10.4,7.76-10.39Z"/><path class="cls-13" d="M52.23,46.56c.55,0,1.52,0,2.79-.07l.49,0,.51,0,.27,0,.28,0,.56-.06c.77-.09,1.6-.21,2.47-.37a26.29,26.29,0,0,0,5.52-1.63,21.16,21.16,0,0,0,2.77-1.4c.45-.26.89-.55,1.32-.85s.85-.61,1.25-.94A21.52,21.52,0,0,0,72.72,39a19.28,19.28,0,0,0,1.79-2.33c.53-.79,1-1.57,1.44-2.31l1.22-2.08a16.57,16.57,0,0,1,2-2.93A2.27,2.27,0,0,1,80,28.8a1,1,0,0,1,.33-.08h-.09a.72.72,0,0,0-.25.05,2.42,2.42,0,0,0-.81.57,15.88,15.88,0,0,0-2.07,2.92c-.39.63-.8,1.33-1.24,2.07s-.92,1.51-1.45,2.29a19.11,19.11,0,0,1-1.79,2.31A22.26,22.26,0,0,1,70.35,41c-.4.33-.82.63-1.24.93s-.87.58-1.31.84a24.36,24.36,0,0,1-2.75,1.38,27.13,27.13,0,0,1-5.49,1.6c-.86.16-1.69.28-2.45.36l-.56.06-.28,0-.26,0-.52,0-.49,0c-1.26.07-2.22.06-2.77.07s-1.52,0-2.78-.1l-.49,0-.51,0-.27,0-.27,0-.56-.06c-.77-.09-1.59-.22-2.45-.39A26.73,26.73,0,0,1,39.43,44a22.8,22.8,0,0,1-2.73-1.41c-.44-.27-.87-.56-1.3-.85s-.84-.62-1.23-.95a21.19,21.19,0,0,1-2.23-2.1,19,19,0,0,1-1.76-2.33c-.52-.79-1-1.57-1.42-2.31S27.93,32.6,27.55,32a16.63,16.63,0,0,0-2-2.94,2.31,2.31,0,0,0-.8-.58,1.29,1.29,0,0,0-.26-.06h-.09a1.36,1.36,0,0,1,.34.09,2.31,2.31,0,0,1,.77.59,16.6,16.6,0,0,1,2,2.95l1.19,2.09c.43.75.89,1.53,1.41,2.33a18.39,18.39,0,0,0,1.77,2.36,22.46,22.46,0,0,0,2.23,2.12c.4.34.81.65,1.24,1s.86.6,1.31.87a23.16,23.16,0,0,0,2.75,1.43,27.08,27.08,0,0,0,5.5,1.69c.87.18,1.69.3,2.46.4l.57.06.27,0,.27,0,.51,0,.49,0C50.7,46.55,51.67,46.55,52.23,46.56Z"/><path class="cls-13" d="M52.24,43.48c-.51,0-1.4,0-2.57-.07a37.94,37.94,0,0,1-4.23-.4,25.29,25.29,0,0,1-2.51-.5,20.65,20.65,0,0,1-2.6-.84L40,41.54l-.32-.15-.32-.14L39,41.09,38.88,41l-.16-.08-.32-.17-.31-.18-.3-.18a15.66,15.66,0,0,1-2.3-1.72l-.27-.24L35,38.19l-.26-.25-.24-.26c-.32-.34-.63-.7-.92-1.06A22.11,22.11,0,0,1,32,34.37c-.44-.75-.84-1.5-1.21-2.2s-.73-1.36-1.07-2-.68-1.13-1-1.59a11.17,11.17,0,0,0-.9-1.12c-.13-.15-.26-.27-.37-.38l-.29-.26L27,26.71,27,26.66s0,0,.05.06l.18.16.28.27.36.39a11.62,11.62,0,0,1,.87,1.13c.31.46.64,1,1,1.59s.68,1.27,1,2,.76,1.45,1.2,2.21a19.43,19.43,0,0,0,1.51,2.27c.29.37.6.73.92,1.08l.24.26.26.26.26.25.26.24a15.17,15.17,0,0,0,2.32,1.75l.31.19.32.18.31.17.16.09.16.08.33.16.32.15.33.14.33.14a21,21,0,0,0,2.62.85c.87.22,1.72.39,2.53.52a41.14,41.14,0,0,0,4.25.41c1.18,0,2.07.06,2.58.07s1.41,0,2.59,0a39.83,39.83,0,0,0,4.25-.36c.81-.12,1.66-.27,2.53-.48A21.11,21.11,0,0,0,64.25,42l.33-.13.33-.14.32-.15.33-.15.16-.08.16-.08.32-.17.32-.18.31-.18A16.58,16.58,0,0,0,69.17,39l.27-.24.26-.25.26-.25.25-.26c.32-.35.64-.7.93-1.07a20.8,20.8,0,0,0,1.53-2.25c.45-.76.86-1.5,1.23-2.2s.73-1.36,1.08-2A18.44,18.44,0,0,1,76,29a11.48,11.48,0,0,1,.89-1.13c.13-.15.25-.27.36-.38l.28-.27.18-.15.06-.06-.07,0a1.25,1.25,0,0,1-.19.15l-.29.26c-.11.11-.24.23-.37.38a8.89,8.89,0,0,0-.91,1.11c-.33.45-.67,1-1,1.57s-.71,1.25-1.1,1.95-.78,1.44-1.24,2.18A19.65,19.65,0,0,1,71,36.84c-.29.36-.61.71-.93,1l-.25.26-.26.25-.26.24-.26.24a16,16,0,0,1-2.32,1.69c-.1.07-.21.12-.31.18l-.32.18-.31.16-.16.08-.16.08-.32.15-.33.15-.32.13-.33.13a20.2,20.2,0,0,1-2.62.81,24.41,24.41,0,0,1-2.51.47,42,42,0,0,1-4.23.36C53.65,43.49,52.75,43.48,52.24,43.48Z"/><path class="cls-8" d="M60.23,66.94a12.36,12.36,0,0,0,.91-3.19,82.22,82.22,0,0,0-18.37-.11,7.91,7.91,0,0,0,.69,3.43A21.35,21.35,0,0,1,60.23,66.94Z"/><path class="cls-8" d="M43.41,67.2l0-.09a8,8,0,0,1-.7-3.47v-.08h.09a80.64,80.64,0,0,1,18.39.11h.1v.1A12.64,12.64,0,0,1,60.32,67l0,.09-.09,0a21.21,21.21,0,0,0-16.69.13Zm-.55-3.47a7.91,7.91,0,0,0,.65,3.21,21.37,21.37,0,0,1,16.67-.12,12.44,12.44,0,0,0,.85-3A80.44,80.44,0,0,0,42.86,63.73Z"/><path class="cls-23" d="M43.46,67.07a9.19,9.19,0,0,0,8,5.57,8.87,8.87,0,0,0,8.74-5.7A21.35,21.35,0,0,0,43.46,67.07Z"/><path class="cls-8" d="M52,72.75h-.52a9.24,9.24,0,0,1-5.15-1.86,9.53,9.53,0,0,1-3-3.77l0-.09.08,0a21.42,21.42,0,0,1,16.85-.13l.09,0,0,.09A9,9,0,0,1,52,72.75Zm-8.41-5.63a9.37,9.37,0,0,0,2.86,3.61,9,9,0,0,0,5,1.81A8.75,8.75,0,0,0,60.1,67,21.16,21.16,0,0,0,43.59,67.12Z"/><ellipse class="cls-24" cx="63.25" cy="97.54" rx="6.69" ry="4.06" transform="translate(-6.79 4.75) rotate(-4.08)"/><path class="cls-8" d="M63.75,93.46v.32h0a8.39,8.39,0,0,1,4.12,1,3.08,3.08,0,0,1,1.73,2.33A3.18,3.18,0,0,1,68,99.8a9,9,0,0,1-4.47,1.47c-.25,0-.51,0-.76,0a8.37,8.37,0,0,1-4.12-1A3.08,3.08,0,0,1,56.9,98a3.17,3.17,0,0,1,1.61-2.71A8.83,8.83,0,0,1,63,93.81c.26,0,.51,0,.77,0v-.32m0,0c-.26,0-.53,0-.79,0-3.69.26-6.55,2.29-6.39,4.53.15,2.07,2.84,3.6,6.18,3.6l.79,0c3.68-.26,6.54-2.29,6.38-4.53-.15-2.07-2.84-3.6-6.17-3.6Z"/><path d="M63,94.55c-2.93.21-5.22,1.74-5.1,3.41.08,1.15,1.26,2,3,2.43l1.82-4.89c2-.85,2.32,2.19-.13,1.89l3.59,2.6s.43-.2.64-.32a2.84,2.84,0,0,0,1.74-2.47C68.45,95.53,66,94.34,63,94.55Zm3.91,4.53a.24.24,0,0,1-.19.11.26.26,0,0,1-.19-.06c-.72-.51-1.54-1.12-2.25-1.64C66.1,97.37,66,93.87,62,95.35l-1.46,3.86h0l-.09.27c-.16.55-.67.08-.7,0A2.38,2.38,0,0,1,59,98c-.12-1.64,1.68-3.1,4-3.27s4.32,1,4.44,2.67A2.4,2.4,0,0,1,66.94,99.08Z"/><path d="M61.08,100.7l-.23,0c-1.93-.49-3.09-1.46-3.18-2.67a2.89,2.89,0,0,1,1.52-2.49A8.67,8.67,0,0,1,67,94.94a2.87,2.87,0,0,1,1.86,2.25A3.08,3.08,0,0,1,67,99.9c-.22.12-.65.32-.67.32l-.14.07-3.88-2.81Zm-.71-.73.38.11,1.09-2.92L61.65,97l-.86,2.28-.1.26A.59.59,0,0,1,60.37,100Zm3-2.34,2.85,2.06.47-.24a.65.65,0,0,1-.29-.11l-1.65-1.21-.59-.43-.32-.23A1.74,1.74,0,0,1,63.37,97.63Zm-3.36-2c-.19.1-.36.2-.53.31a2.39,2.39,0,0,0-1.29,2,2.12,2.12,0,0,0,1.22,1.59,2.54,2.54,0,0,1-.63-1.48A2.83,2.83,0,0,1,60,95.65Zm1.73-.33a4.57,4.57,0,0,0-1.45.77,2.35,2.35,0,0,0-1,2,2.06,2.06,0,0,0,.64,1.33.65.65,0,0,0,.22.14.56.56,0,0,0,0-.08v0l.1-.27Zm4.41-.12a2.93,2.93,0,0,1,1.6,2.26,2.61,2.61,0,0,1-.48,1.65,2.24,2.24,0,0,0,1-1.85,2.39,2.39,0,0,0-1.56-1.82A5.36,5.36,0,0,0,66.15,95.16ZM64.9,97.6l.15.12,1.66,1.2h0a2.15,2.15,0,0,0,.5-1.46,2.65,2.65,0,0,0-1.91-2.13,1.51,1.51,0,0,1,.26,1.5A1.43,1.43,0,0,1,64.9,97.6ZM64,95.26a1.42,1.42,0,0,1,.24.19,1.27,1.27,0,0,1,.17,1.42,1.13,1.13,0,0,1-.28.37h.12a.86.86,0,0,0,.8-.59.92.92,0,0,0-.21-1A1.34,1.34,0,0,0,64,95.26Zm-1.63,1.85.23,0A1.24,1.24,0,0,0,64,96.63a.74.74,0,0,0-.09-.82.87.87,0,0,0-1-.11ZM61.65,97l.23,0,.59-1.59-.27.09Z"/><path class="cls-25" d="M63.19,94.23c-2.93.21-5.22,1.74-5.1,3.42.08,1.15,1.25,2,3,2.43l1.82-4.89c2-.85,2.32,2.18-.13,1.89l3.58,2.59s.44-.19.65-.31a2.86,2.86,0,0,0,1.74-2.47C68.61,95.21,66.13,94,63.19,94.23Zm3.91,4.54a.33.33,0,0,1-.2.11.3.3,0,0,1-.18-.06l-2.25-1.64c1.79-.13,1.67-3.63-2.31-2.15L60.7,98.9h0l-.09.26c-.16.56-.67.09-.7.06a2.33,2.33,0,0,1-.71-1.49c-.12-1.64,1.67-3.11,4-3.27s4.32,1,4.44,2.66A2.42,2.42,0,0,1,67.1,98.77Z"/><path d="M63.86,94.21c2.64,0,4.76,1.13,4.87,2.68A2.86,2.86,0,0,1,67,99.36c-.21.12-.65.31-.65.31l-3.58-2.59.33,0c1.81,0,1.76-2.06.46-2.06a1.63,1.63,0,0,0-.66.15l-1.82,4.89c-1.73-.43-2.9-1.28-3-2.43-.12-1.68,2.17-3.21,5.1-3.42l.67,0m-3.53,5.22c.11,0,.22-.06.28-.27l.09-.26h0L62.16,95a5.23,5.23,0,0,1,1.73-.36c2.23,0,2,2.4.58,2.51l2.25,1.64a.35.35,0,0,0,.17.06h0a.33.33,0,0,0,.2-.11,2.42,2.42,0,0,0,.55-1.65c-.11-1.53-1.87-2.68-4-2.68a3.1,3.1,0,0,0-.43,0c-2.34.16-4.13,1.63-4,3.27a2.33,2.33,0,0,0,.71,1.49.76.76,0,0,0,.42.21m3.53-5.27c-.22,0-.45,0-.67,0a7.75,7.75,0,0,0-3.72,1.16A2.67,2.67,0,0,0,58,97.65c.08,1.11,1.18,2,3,2.48h0l0,0,1.81-4.88a1.67,1.67,0,0,1,.62-.14.86.86,0,0,1,.89.89,1,1,0,0,1-.32.73,1.46,1.46,0,0,1-1,.35,1.72,1.72,0,0,1-.32,0l-.19,0,.15.11,3.59,2.59,0,0h0s.45-.2.65-.32a2.89,2.89,0,0,0,1.77-2.51c-.11-1.56-2.23-2.73-4.92-2.73Zm-3.53,5.22a.76.76,0,0,1-.39-.2,2.31,2.31,0,0,1-.7-1.46,2.58,2.58,0,0,1,1.07-2.14,5.14,5.14,0,0,1,2.9-1.08h.43a5,5,0,0,1,2.74.76,2.5,2.5,0,0,1,1.22,1.88,2.35,2.35,0,0,1-.54,1.61.25.25,0,0,1-.16.09h0a.24.24,0,0,1-.14,0l-1.66-1.21-.49-.36a1.22,1.22,0,0,0,1-1.27c0-.61-.48-1.32-1.73-1.32a5,5,0,0,0-1.75.37h0v0l-1.45,3.86-.09.24v0h0c-.05.16-.12.23-.23.23Z"/></g><path class="cls-3" d="M13,115h5.12v29.14h12.9v4.09H13Z"/><path class="cls-3" d="M34.64,112.61h4.88v35.65H34.64Z"/><path class="cls-3" d="M49.67,138.3c.14,4.42,2.88,6.84,7.77,6.84a15.41,15.41,0,0,0,7.49-1.77l1.4,3.54a20.65,20.65,0,0,1-9,1.91c-4.15,0-7.17-1-9.27-3.07a11.71,11.71,0,0,1-3.21-8.66c0-7.26,4.28-11.68,11.31-11.68s11,4.14,11,11.26c0,.47,0,.84,0,1.63Zm12.79-3.4c-.23-4-2.32-6-6.14-6s-6.23,2.14-6.56,6Z"/><path class="cls-3" d="M89.41,144.91a9.11,9.11,0,0,1-7.73,3.68c-6.37,0-10.42-4.47-10.42-11.59s4-11.64,10.33-11.64A9,9,0,0,1,89.36,129l.28-3.12h4.42v19.59c0,4.84-.56,7.64-1.86,9.64-2.09,3.25-5.58,4.74-10.84,4.74a19.56,19.56,0,0,1-7.82-1.44l1.16-3.67a13.44,13.44,0,0,0,6.66,1.48c3.58,0,6-1.25,7.16-3.67a14.19,14.19,0,0,0,.89-5.91ZM76.33,137c0,4.88,2.37,7.82,6.33,7.82s6.47-3,6.47-7.73c0-4.93-2.47-8-6.47-8S76.33,132.11,76.33,137Z"/><path class="cls-3" d="M117.7,145.14c-1.72,2.42-4.28,3.63-7.73,3.63-6.46,0-10.47-4.51-10.47-11.68s4-11.68,10.43-11.68c3.44,0,6,1.12,7.68,3.44l.09-2.93h4.61v22.34h-4.24Zm-13.12-8c0,5,2.37,8,6.33,8s6.46-3.07,6.46-7.87c0-5-2.46-8.05-6.46-8.05S104.58,132.16,104.58,137.09Z"/><path class="cls-3" d="M156.09,145.14c-1.72,2.42-4.28,3.63-7.73,3.63-6.46,0-10.47-4.51-10.47-11.68s4-11.68,10.43-11.68c3.44,0,6,1.12,7.68,3.44l.09-2.93h4.61v22.34h-4.24Zm-13.12-8c0,5,2.37,8,6.33,8s6.46-3.07,6.46-7.87c0-5-2.46-8.05-6.46-8.05S143,132.16,143,137.09Z"/><path class="cls-3" d="M175.31,129.78v-3.86h3.49l.32-6.7,4.33-.7v7.4h6.14v3.86h-6.14v9.92c0,3.91.75,4.93,3.49,4.93a5.76,5.76,0,0,0,2.19-.42l.79,3.86a15,15,0,0,1-4.28.56c-3.17,0-5-.79-6-2.6-.74-1.4-1-2.84-1-6.71v-9.54Z"/><path class="cls-3" d="M198.48,125.92v11.92c0,5.21,1.26,7.12,4.75,7.12a4.77,4.77,0,0,0,4.65-2.75c.61-1.3.84-2.89.84-5.82V125.92h4.93v22.34h-4.47l-.23-2.65c-1.86,2.28-3.86,3.16-7.17,3.16-3.49,0-5.95-1.25-7.11-3.67-.75-1.49-1.08-3.64-1.08-6.89V125.92Z"/><path class="cls-3" d="M247.76,145.05a9.07,9.07,0,0,1-7.91,3.72c-6.52,0-10.56-4.47-10.56-11.68s4-11.68,10.47-11.68a9.32,9.32,0,0,1,7.63,3.4v-16.2h4.88v35.65h-4.18Zm-13.4-8c0,5,2.42,8,6.42,8s6.61-3,6.61-7.87c0-5-2.47-8.05-6.56-8.05S234.36,132.16,234.36,137.09Z"/><path class="cls-3" d="M262.37,138.3c.14,4.42,2.89,6.84,7.77,6.84a15.48,15.48,0,0,0,7.5-1.77l1.39,3.54a20.65,20.65,0,0,1-9,1.91c-4.14,0-7.17-1-9.26-3.07a11.71,11.71,0,0,1-3.21-8.66c0-7.26,4.28-11.68,11.31-11.68s11,4.14,11,11.26c0,.47,0,.84-.05,1.63Zm12.8-3.4c-.23-4-2.33-6-6.14-6s-6.24,2.14-6.57,6Z"/><path class="cls-3" d="M284.75,143.33a11,11,0,0,0,6.43,1.81c3,0,4.6-1.07,4.6-3.12a2,2,0,0,0-1-1.9c-.79-.47-.79-.47-4.65-1.68-4.14-1.3-6-3.4-6-6.66,0-4.09,2.79-6.37,7.82-6.37a13.08,13.08,0,0,1,7.49,2.09l-1.72,3.26A9.65,9.65,0,0,0,292.2,129c-2.37,0-3.63.88-3.63,2.51a2.35,2.35,0,0,0,1.3,2.14,20.44,20.44,0,0,0,3.54,1.31c5.26,1.67,6.89,3.3,6.89,6.93,0,4.52-3,6.84-8.85,6.84a15.93,15.93,0,0,1-8.33-1.91Z"/><path class="cls-3" d="M303.27,129.78v-3.86h3.49l.33-6.7,4.33-.7v7.4h6.14v3.86h-6.14v9.92c0,3.91.74,4.93,3.49,4.93a5.68,5.68,0,0,0,2.18-.42l.8,3.86a15.06,15.06,0,0,1-4.29.56c-3.16,0-5-.79-6-2.6-.74-1.4-1-2.84-1-6.71v-9.54Z"/><path class="cls-3" d="M327.33,118.89a3.06,3.06,0,1,1-3-2.88A2.81,2.81,0,0,1,327.33,118.89Zm-5.49,7h4.93v22.34h-4.93Z"/><path class="cls-3" d="M333.24,125.92h4.42l.23,2.65c1.91-2.23,4.05-3.16,7.36-3.16,3.63,0,6.23,1.35,7.49,3.91.79,1.53,1.12,3.72,1.12,7v11.91h-4.94V136.67c0-5.44-1.3-7.44-4.88-7.44a5.25,5.25,0,0,0-5,2.74c-.65,1.26-.93,2.93-.93,5.82v10.47h-4.89Z"/><path class="cls-3" d="M383.08,137.09c0,7.12-4.65,11.68-12,11.68S359,144.26,359,137c0-7,4.75-11.54,12.05-11.54S383.08,129.92,383.08,137.09Zm-19-.09c0,5,2.65,8.05,7.08,8.05,4.23,0,6.88-3,6.88-8s-2.65-8-7-8S364.09,132.16,364.09,137Z"/><path class="cls-3" d="M8.12,120.42a2.78,2.78,0,0,1-.7,1.93,2.6,2.6,0,0,1-2.07.79,2.65,2.65,0,0,1-2.09-.79,2.74,2.74,0,0,1-.71-1.93,2.66,2.66,0,0,1,.71-1.91,2.71,2.71,0,0,1,2.09-.77,2.66,2.66,0,0,1,2.07.77A2.7,2.7,0,0,1,8.12,120.42Zm-4.78,7.94H7.61l.33,26.58H3Z"/><path class="cls-3" d="M387.26,151.52a2.85,2.85,0,0,1,.7-1.94,2.66,2.66,0,0,1,2.08-.78,2.69,2.69,0,0,1,2.09.78,2.81,2.81,0,0,1,.71,1.94,2.73,2.73,0,0,1-.71,1.92,2.76,2.76,0,0,1-2.09.76,2.72,2.72,0,0,1-2.08-.76A2.77,2.77,0,0,1,387.26,151.52Zm4.77-8.11h-4.26l-.33-26.57h4.94Z"/></g></g></svg>